<?xml version="1.0" encoding="utf-8"?>
<!-- Generator: Adobe Illustrator 26.3.1, SVG Export Plug-In . SVG Version: 6.00 Build 0)  -->
<svg version="1.0" id="Layer_1" xmlns="http://www.w3.org/2000/svg" x="0px"
     y="0px"
     viewBox="0 0 4000 4000" style="enable-background:new 0 0 4000 4000;" xml:space="preserve">
<style type="text/css">
	.st0{fill:#FFDA40;}
	.st1{fill:#FC0332;}
	.st2{fill:#EFAF30;}
	.st3{fill:#FFEC7B;}
	.st4{fill:#000072;}
	.st5{opacity:0.6;}
	.st6{fill:#FFFFFF;}
	.st7{opacity:0.3;}
	.st8{fill:#01A7FD;}
	.st9{fill:#6ED8F2;}
</style>
    <g>
	<g>
		<g>
			<g>
				<path class="st0" d="M1528.8,2797.6c9.1,0,17.6,0.3,25.4,0.7c-1.9-13.4-4.4-33.6-6.5-58.6l-10.9-5
					c-86.9-39.7-137.2-130-125.1-224.8l9.9-77.1c-14.6-15.8-26.4-33.8-35.2-53.3c-46.4,12.4-86.1,42-120.8,89.9
					c-44.4,61.4-61.9,130.1-62,130.6c-6.9,28.5-31.2,48.8-60.4,50.6c-1.4,0.1-2.8,0.1-4.1,0.1c-27.4,0-52.3-17.2-62.1-42.8
					c-85-224.4-82.2-401.1,8.6-525.1c87.6-119.7,231.8-155.8,327.1-166.1c24-134.1,56.4-266.9,96.4-395.4
					c53.6-172.5,121.2-337.6,200.7-490.9c55.8-107.4,121.6-204.6,195.5-288.8c0.1-0.1,0.2-0.2,0.2-0.3c0,0,0.1-0.1,0.1-0.1
					c26.9-30.6,55-59.6,84.1-86.9c-663.2,29-1191.9,575.7-1191.9,1245.9c0,398.9,187.3,754,478.6,982.3
					c44.4-38.6,100.2-64.7,165.9-77.1C1470,2800.3,1499.1,2797.6,1528.8,2797.6z"/>
			</g>
		</g>
        <g>
			<g>
				<path class="st0" d="M3006.7,1105.9c-1.3,44.4-5,89.1-11.2,134.1l-0.1,0.5l-0.2,1.2c-15.3,110.2-45.4,222.7-89.7,334.3
					c-63.6,160.6-144.1,319.8-239.3,473.3c-70.9,114.4-150,225.9-235.5,331.9c54.7,78.7,121.9,211.3,88.9,355.9
					c-34.2,149.8-165.8,267.7-391,350.5c-7.4,2.7-15.1,4.1-22.9,4.1c-20.6,0-40.3-9.8-52.8-26.1c-17.7-23.3-18.2-54.9-1.3-78.7
					c1.4-2,41-59.6,58-132.5c13.5-57.6,9.8-107-11.2-150.1c-18.7,5.6-38.2,8.5-57.7,8.5c-1.9,0-3.8,0-5.7-0.1l-51.8,58
					c-41.2,46.1-100,72.5-161.4,72.5c-31.3,0-61.7-6.6-90.4-19.7l-11-5c-20.3,14.8-37.1,26.1-48.5,33.5
					c20.4,21.2,45.8,51.5,67.9,89.3c34.6,59.1,51.5,119.9,50.6,180.2c82.2,17,167.3,26,254.5,26c688.8,0,1247.2-558.4,1247.2-1247.2
					C3292.2,1598.4,3185,1321.7,3006.7,1105.9z"/>
			</g>
		</g>
	</g>
        <g>
		<g>
			<g>
				<g>
					<path class="st1" d="M1603.4,2873.8c0,0,194.3,155.6,91.8,359.8c-102.4,204.2-347.1,172-394.5,275.9
						c47.4-103.8-137.2-267.6-50.1-478.7s331.9-166.4,331.9-166.4"/>
				</g>
			</g>
            <g>
				<g>
					<path class="st2" d="M1570.7,2917.9c-42-4.1-163.4-5.3-210.6,109c-35.7,86.6-6,163.6,25.4,245.1c3.6,9.4,7.3,18.8,10.8,28.2
						c9.4-3.5,18.9-7,28.4-10.4c82.2-29.7,159.8-57.6,201.8-141.4C1681.8,3038.2,1601.9,2947.5,1570.7,2917.9z"/>
				</g>
			</g>
            <g>
				<g>
					<path class="st3" d="M1562,2937.1c-23.1-2.3-89.9-2.9-115.9,60c-19.7,47.6-3.3,90,14,134.8c2,5.2,4,10.3,5.9,15.5
						c5.2-1.9,10.4-3.8,15.6-5.7c45.2-16.3,87.9-31.7,111-77.8C1623.1,3003.3,1579.1,2953.4,1562,2937.1z"/>
				</g>
			</g>
            <g>
				<g>
					<path class="st4" d="M1300.8,3535.9c-3.7,0-7.4-0.8-10.9-2.4c-9.7-4.4-15.4-14-15.4-24c0-3.7,0.8-7.4,2.4-10.9
						c15.2-33.4-3.9-83-26.1-140.5c-35.2-91.2-79-204.8-24.4-337.3c39.2-95,116.4-155.8,223.4-175.9c78.7-14.8,145.6-2.1,148.4-1.6
						c4.1,0.8,8,2.6,11.2,5.1c2.3,1.8,55.6,44,96,113.1c54.9,93.9,59.6,192.1,13.5,284c-64.3,128.1-178.8,169.4-270.8,202.6
						c-58,20.9-108.1,39-123.3,72.4C1320.4,3530.1,1310.8,3535.9,1300.8,3535.9z M1527,2890.1c-75,0-198.4,21.2-251.9,150.7
						c-46.6,113-8.7,211.4,24.8,298.2c14,36.2,26.9,69.8,32.5,101.3c27.4-16.5,61.3-28.7,97.8-41.9
						c87.5-31.6,186.7-67.4,241.5-176.6c83.2-165.9-61.3-302.9-90.1-327.9C1571.8,2892.4,1552.1,2890.1,1527,2890.1z"/>
				</g>
			</g>
            <g>
				<g>
					<path class="st4" d="M1324.8,3520.4l-172.2,326.8c-3.1,5.8-12.2,1.9-9.8-4.5c0,0,134-344.3,134-344.3
						C1291.6,3464.7,1340.7,3486.9,1324.8,3520.4L1324.8,3520.4z"/>
				</g>
			</g>
		</g>
            <g>
			<g>
				<path class="st1"
                      d="M1496.8,1979.6c0,0-599.4-32.9-357.8,604.7c0,0,75.7-315.6,347.6-274.2L1496.8,1979.6z"/>
			</g>
		</g>
            <g class="st5">
			<g>
				<path class="st6" d="M1494.9,2041.4l1.9-61.9c0,0-599.4-32.9-357.8,604.7c0,0,0.3-1.3,0.9-3.6
					C986.1,2085.2,1387.8,2043.8,1494.9,2041.4z"/>
			</g>
		</g>
            <g>
			<g>
				<path class="st4" d="M1139,2610.6c-10.9,0-20.8-6.7-24.7-17c-79.9-211-78.8-374.9,3.4-487.3c121-165.4,370-153.7,380.5-153.1
					c14.3,0.8,25.4,12.8,24.9,27.2l-10.3,330.5c-0.2,7.5-3.7,14.6-9.5,19.5c-5.8,4.8-13.4,7-20.9,5.8
					c-101.7-15.5-185.6,21.4-249.4,109.7c-49.7,68.7-68.3,143.9-68.5,144.6c-2.7,11.2-12.5,19.4-24,20.1
					C1140.1,2610.6,1139.5,2610.6,1139,2610.6z M1469.6,2005.9c-63.1,1.8-226.3,18-309.4,131.8c-61.9,84.8-68.8,208-20.7,366.6
					c11.8-26.7,28.1-57.7,49.9-88.1c69.2-96.5,162.6-142.9,271.7-135.6L1469.6,2005.9z"/>
			</g>
		</g>
            <g>
			<g>
				<path class="st1" d="M2328,2358.9c0,0,417.6,431.2-222.3,666.6c0,0,188.8-264-20.6-442.2L2328,2358.9z"/>
			</g>
		</g>
            <g class="st7">
			<g>
				<path class="st4"
                      d="M2119.8,3003.1c39.7-67.2,138-272.8-34.8-419.9l169.9-156.9C2331.8,2527.3,2495.1,2808.1,2119.8,3003.1z"/>
			</g>
		</g>
            <g>
			<g>
				<path class="st4" d="M2105.7,3051.8c-8.1,0-15.9-3.7-21-10.4c-7-9.2-7.2-21.9-0.5-31.3c0.4-0.6,45-64,64.3-146.5
					c24.8-106.1-2.3-193.7-80.6-260.3c-5.7-4.9-9.1-12-9.3-19.6c-0.2-7.5,2.9-14.8,8.5-19.9l242.9-224.3c10.5-9.7,26.9-9.3,36.9,1
					c7.3,7.6,179.3,188,133.7,387.8c-31,135.7-154.1,244-365.8,321.9C2111.8,3051.3,2108.7,3051.8,2105.7,3051.8z M2123.9,2583.2
					c77,77.5,103.1,178.5,75.6,294c-8.7,36.3-21.4,69-33.8,95.4c151.5-67.7,240-153.6,263.4-256.1
					c31.4-137.7-63.2-271.1-103.2-319.9L2123.9,2583.2z"/>
			</g>
		</g>
            <g>
			<g>
				<g>
					<path class="st8" d="M1810.2,2393.2l299.3,136.6l-175.7,196.7c-43.9,49.2-114.7,64-174.7,36.6l-97.3-44.4l-97.3-44.4
						c-60-27.4-95.2-90.6-86.8-156l33.4-261.7L1810.2,2393.2"/>
				</g>
			</g>
                <g class="st7">
				<g>
					<path class="st4" d="M1842,2407.7l-157.6,176.3c-43.9,49.2-114.7,64-174.7,36.6l-11.4-5.2c15.3,25.2,37.9,45.9,66,58.8
						l97.3,44.4l97.3,44.4c60,27.4,130.8,12.5,174.7-36.6l175.7-196.7L1842,2407.7z"/>
				</g>
			</g>
                <g>
				<g>
					<path class="st4" d="M1821.8,2803.3c-24.8,0-50-5.3-73.8-16.1l-194.7-88.9c-70.9-32.4-111.9-106-102-183.3l33.4-261.7
						c1.1-8.3,6-15.6,13.3-19.7s16.2-4.4,23.8-0.9l299.3,136.6c0.1,0,0.2,0.1,0.3,0.1l299,136.4c7.6,3.5,13.1,10.4,14.9,18.6
						c1.7,8.2-0.6,16.7-6.1,23l-175.8,196.7C1918.9,2782.7,1870.9,2803.3,1821.8,2803.3z M1532.6,2295.5l-28.9,226.1
						c-6.9,54.2,21.8,105.9,71.6,128.7l194.7,88.9c49.7,22.7,107.7,10.6,144.1-30.2l151.9-170l-266.7-121.7c-0.1,0-0.2-0.1-0.3-0.1
						L1532.6,2295.5z"/>
				</g>
			</g>
		</g>
            <g>
			<g>
				<g>
					<path class="st6" d="M2135,2608.1c-40.3,38.8-100.1,49.1-151,25.9l-469.6-214.3c-50.9-23.2-82.3-75.2-79.4-131
						c10.7-203.7,64.9-710.2,333.6-1227.8c56.5-108.7,119.4-199.2,185.4-274.5c250.6-286.4,544.1-354.5,681.7-370.5
						c49.8-5.8,98.8,16.6,127,58c78.2,114.5,219.1,380.7,166.9,757.7c-13.6,99.3-40.8,206.2-85.9,320.1
						C2628.9,2093.7,2281.8,2466.5,2135,2608.1z"/>
				</g>
			</g>
                <g>
				<g>
					<path class="st1" d="M2929.7,1231.6c-405.7-551.2-975.6-445.1-975.6-445.1c250.6-286.4,544.1-354.5,681.7-370.5
						c49.8-5.8,98.8,16.6,127,58C2841,588.4,2981.9,854.6,2929.7,1231.6z"/>
				</g>
			</g>
                <g class="st5">
				<g>
					<path class="st6" d="M2753.6,462c-10.6-1.4-21.4-1.5-32.3-0.2c-137.7,16-431.1,84.1-681.8,370.5
						c-66,75.4-128.9,165.9-185.4,274.6c-224,431.5-298.9,855.2-323.9,1102.2c-5,49.4-7.9,91.6-9.7,125.5
						c-2.2,41.8,14.9,81.5,45.1,108.6l-33.5-15.3l-17.6-8.1c-50.9-23.2-82.3-75.2-79.4-131c10.7-203.7,64.8-710.2,333.5-1227.8
						c56.5-108.6,119.4-199.2,185.5-274.6c250.6-286.3,544.1-354.5,681.7-370.5C2680.5,410.7,2724.6,428.3,2753.6,462z"/>
				</g>
			</g>
                <g class="st7">
				<g>
					<path class="st4" d="M2851.2,1199.3c-13.6,99.3-40.8,206.2-85.9,320c-214.9,542.1-562,915-708.8,1056.5
						c-33,31.8-79.2,44.5-122.9,35.2l-368.1-168c-30.2-27.1-47.3-66.7-45.1-108.6c1.8-33.9,4.7-76.1,9.7-125.5l276.2,126
						c51,23.3,110.8,13,151.1-25.9c76.7-74,208-210.9,346.5-402.3c139.7-24.8,261.2-116.9,321.3-248.6
						c50.1-109.6,50.7-229.4,11.5-334.2c10.1-23.4,19.9-47.3,29.5-71.4c45.1-113.8,72.2-220.7,85.9-320
						c21.4-154.3,10.4-290.1-15.5-404.5C2811.1,666.9,2893.1,897.7,2851.2,1199.3z"/>
				</g>
			</g>
                <g>
				<g>
					<path class="st4" d="M2929.7,1258.1c-8.1,0-16.1-3.7-21.3-10.7c-204-277.2-450.9-380.7-622.1-418.7
						c-186.2-41.3-326.1-16.5-327.5-16.2c-14.3,2.6-28.1-6.8-30.7-21.2c-2.6-14.3,6.8-28.1,21.1-30.7c6-1.1,150-27,346.2,16.1
						c180.7,39.7,441.1,148.1,655.5,439.5c8.6,11.7,6.1,28.3-5.6,36.9C2940.6,1256.4,2935.1,1258.1,2929.7,1258.1z"/>
				</g>
			</g>
                <g>
				<g>
					<path class="st4" d="M2040.7,2672.9c-22.8,0-45.9-4.9-67.7-14.8l-469.6-214.3c-61.1-27.9-98.3-89.3-94.8-156.5
						c10.4-197.5,64-713.7,336.5-1238.5c277.3-534,713.1-638.8,887.6-659.1c59.7-6.9,117.9,19.6,151.9,69.3
						c99,145.1,305.4,542.9,83.7,1102.3c-217.9,549.8-572.6,928.5-715,1065.8C2122.2,2657.1,2081.8,2672.9,2040.7,2672.9z
						 M2651.5,441.4c-4.2,0-8.4,0.2-12.6,0.7c-166.1,19.3-581.2,119.4-846.8,631c-267.8,515.7-320.4,1022.8-330.7,1217
						c-2.4,45.4,22.7,86.9,64,105.7l469.6,214.3c41.2,18.8,89.1,10.6,121.8-20.9c139.9-134.9,488.5-507.1,702.6-1047.2
						c212.4-535.9,16-915-78.3-1053.1C2720.6,458.8,2687.1,441.4,2651.5,441.4z"/>
				</g>
			</g>
		</g>
            <g>
			<g>
				<path class="st1" d="M1912.4,2169.2c0,0,84.7,150.9,11.5,324.3c-73.2,173.4-301.6,311.4-301.6,311.4s-45.4-262.9,37.6-431.8
					C1742.9,2204.1,1912.4,2169.2,1912.4,2169.2z"/>
			</g>
		</g>
            <g class="st5">
			<g>
				<path class="st6" d="M1690.1,2440.9c75.7-154.2,223.5-196.7,248.7-202.9c-11.8-42.7-26.4-68.7-26.4-68.7
					s-169.5,34.9-252.5,203.8s-37.6,431.8-37.6,431.8s7.8-4.7,20.9-13.5C1636.4,2700.2,1636.1,2550.7,1690.1,2440.9z"/>
			</g>
		</g>
            <g>
			<g>
				<path class="st4" d="M1622.3,2831.2c-3.7,0-7.5-0.8-11-2.4c-7.9-3.6-13.6-10.9-15-19.5c-1.9-11.1-45.9-273.4,39.9-448
					c87.7-178.4,263.4-216.5,270.8-218c11.2-2.3,22.7,2.9,28.3,12.9c3.7,6.6,90.1,164.3,12.8,347.4
					c-75.7,179.2-302.6,317.9-312.2,323.7C1631.8,2829.9,1627.1,2831.2,1622.3,2831.2z M1898,2200.7
					c-44.8,14.8-154.6,62.2-214.4,183.9c-59.3,120.8-49.2,296.3-40.6,374.9c65-45.1,204.3-152.4,256.6-276.4
					C1952.4,2358.2,1916.2,2244.2,1898,2200.7z"/>
			</g>
		</g>
            <g>
			<g>
				<g>
					<g>
						<circle class="st8" cx="2228.3" cy="1477" r="361.1"/>
					</g>
				</g>
                <g class="st5">
					<g>
						<path class="st6" d="M1945,1395c82.8-181.4,297-261.4,478.4-178.6c50.1,22.8,92.4,55.7,125.7,95.2
							c-35.8-69.5-94.3-128-170.9-163c-181.4-82.8-395.6-2.8-478.4,178.6c-59.9,131.4-34.5,279.8,52.9,383.2
							C1903.8,1615.4,1897.2,1499.7,1945,1395z"/>
					</g>
				</g>
                <g>
					<g>
						<path class="st4" d="M2228.1,1864.7c-54.8,0-109.4-11.8-160.7-35.2c-94.2-43-165.9-120-202.1-217
							c-36.2-97-32.5-202.2,10.5-296.4c88.7-194.4,319-280.3,513.4-191.6c194.4,88.7,280.3,319,191.6,513.4l0,0
							c-43,94.2-120,165.9-217,202.1C2319.7,1856.5,2273.8,1864.7,2228.1,1864.7z M2228.8,1142.3c-127.1,0-248.9,72.7-305,195.7
							c-37.1,81.3-40.3,172.3-9.1,256c31.3,83.8,93.3,150.3,174.6,187.4c81.3,37.1,172.2,40.3,256,9.1
							c83.8-31.3,150.3-93.3,187.4-174.6l0,0c76.6-167.9,2.4-366.8-165.5-443.4C2322.3,1152.1,2275.2,1142.3,2228.8,1142.3z"/>
					</g>
				</g>
			</g>
                <g>
				<g>
					<g>
						
							<ellipse transform="matrix(0.7071 -0.7071 0.7071 0.7071 -391.7767 2008.2397)" class="st9"
                                     cx="2228.3" cy="1477" rx="217.8" ry="217.8"/>
					</g>
				</g>
                    <g class="st7">
					<g>
						<path class="st4" d="M2075.3,1469.5c49.9-109.3,179.3-157.6,288.6-107.7c29,13.2,53.7,32.2,73.4,54.8
							c-17.1-58.9-58.7-110.3-118.7-137.7c-109.3-49.9-238.8-1.5-288.6,107.7c-36.6,80.2-20.2,171.3,34.3,233.9
							C2050.4,1572.1,2052.8,1518.8,2075.3,1469.5z"/>
					</g>
				</g>
                    <g>
					<g>
						<path class="st4" d="M2227.9,1721.3c-33.9,0-68.3-7.1-101-22c-59.3-27-104.5-75.6-127.3-136.8
							c-22.8-61.2-20.5-127.5,6.5-186.8c27-59.3,75.6-104.5,136.8-127.3c61.2-22.8,127.5-20.5,186.8,6.5
							c122.5,55.9,176.7,201.1,120.8,323.6C2409.5,1668.2,2320.7,1721.3,2227.9,1721.3z M2228.6,1285.6
							c-72.7,0-142.4,41.6-174.5,112c-43.8,96-1.3,209.8,94.7,253.7c96,43.8,209.8,1.4,253.7-94.7c43.8-96,1.3-209.8-94.7-253.7
							C2282.1,1291.1,2255.1,1285.6,2228.6,1285.6z"/>
					</g>
				</g>
			</g>
		</g>
	</g>
        <g>
		<g>
			<path class="st6" d="M1197.8,1672.1c24.8-1.5,51.9-6.8,79.6-18.6c-27.5-11.7-54.5-17-79.3-18.6c-1.6-24.8-6.9-51.8-18.6-79.3
				c-11.7,27.6-17,54.7-18.6,79.6c-47,3.6-79.3,18.3-79.3,18.3s32.4,14.7,79.5,18.3c3.6,47.1,18.3,79.5,18.3,79.5
				S1194.2,1719.1,1197.8,1672.1z"/>
		</g>
	</g>
        <g>
		<g>
			<path class="st6" d="M2705.2,2507.8c24.8-1.5,51.9-6.8,79.6-18.6c-27.5-11.7-54.5-17-79.3-18.6c-1.6-24.8-6.9-51.8-18.6-79.3
				c-11.7,27.6-17,54.7-18.6,79.6c-47,3.6-79.3,18.3-79.3,18.3s32.4,14.7,79.5,18.3c3.6,47.1,18.3,79.5,18.3,79.5
				S2701.6,2554.8,2705.2,2507.8z"/>
		</g>
	</g>
        <g>
		<g>
			<path class="st6" d="M3048.6,1824.7c15.8-1,33.1-4.4,50.8-11.9c-17.6-7.5-34.8-10.8-50.6-11.8c-1-15.8-4.4-33-11.8-50.6
				c-7.5,17.6-10.9,34.9-11.9,50.8c-30,2.3-50.6,11.7-50.6,11.7s20.7,9.4,50.7,11.7c2.3,30.1,11.7,50.8,11.7,50.8
				S3046.3,1854.7,3048.6,1824.7z"/>
		</g>
	</g>
        <g>
		<g>
			<path class="st6" d="M1592.1,937.6c15.8-1,33.1-4.4,50.8-11.9c-17.6-7.5-34.8-10.8-50.6-11.8c-1-15.8-4.4-33-11.8-50.6
				c-7.5,17.6-10.9,34.9-11.9,50.8c-30,2.3-50.6,11.7-50.6,11.7s20.7,9.4,50.7,11.7c2.3,30.1,11.7,50.8,11.7,50.8
				S1589.8,967.6,1592.1,937.6z"/>
		</g>
	</g>
</g>
</svg>
