<?xml version="1.0" encoding="utf-8"?>
<!-- Generator: Adobe Illustrator 25.1.0, SVG Export Plug-In . SVG Version: 6.00 Build 0)  -->
<svg version="1.1" id="Слой_1" xmlns="http://www.w3.org/2000/svg" xmlns:xlink="http://www.w3.org/1999/xlink" x="0px" y="0px"
	 viewBox="0 0 300 300" style="enable-background:new 0 0 300 300;" xml:space="preserve">
<style type="text/css">
	.st0{fill:#F0ABCC;}
	.st1{fill:#FFFFFF;}
</style>
<rect class="st0" width="300" height="300"/>
<path class="st1" d="M13.11,300c0,0-0.58-5.49,0-7.2c0.84-2.47,6.33-8.31,6.33-8.31l80.7-38.37c0,0,0.98-5.1,1.58-6.73
	c1.27-3.44,4.07-10.52,6.73-13.05c0.87-0.82,4.35-1.98,4.35-1.98l1.98-10.29c0,0-18.5-2.98-24.13-5.54
	c-3.22-1.46-11.47-8.31-11.47-8.31s4.51-7.55,5.54-10.29c1.57-4.18,3.33-12.99,3.96-17.41c1.29-9.13,1.58-27.64,2.77-36.79
	c0.91-6.98,3.03-20.98,5.14-27.69c1.44-4.56,5.51-13.28,7.91-17.41c2.71-4.65,8.63-13.84,12.66-17.41
	c2.88-2.56,9.86-6.13,13.45-7.52c3.31-1.27,10.32-2.77,13.85-3.16c3.05-0.34,9.24-0.5,12.26,0c3.92,0.65,11.53,3.27,15.03,5.14
	c3.3,1.77,9.17,6.51,11.87,9.1c2.79,2.67,7.85,8.59,9.89,11.87c2.06,3.31,5.07,10.55,6.33,14.24c2.16,6.36,5.26,19.48,6.33,26.11
	c1.15,7.15,1.62,21.67,2.37,28.88c0.57,5.45,1.76,16.37,2.77,21.76c0.62,3.3,1.92,9.94,3.16,13.05c0.81,2.02,4.35,7.52,4.35,7.52
	s-8.95,6.02-12.24,7.45c-5.4,2.35-22.69,6.38-22.69,6.38l-0.28,9.11c0,0,6.71,4.26,8.31,6.33c2.03,2.63,4.33,9.04,5.14,12.26
	c0.24,0.96,0.4,3.96,0.4,3.96s55.11,25.97,73.19,35.21c2.4,1.23,7.55,3.27,9.49,5.14c1.4,1.35,3.44,4.84,3.96,6.73
	c0.47,1.74,0,7.2,0,7.2H13.11z"/>
</svg>
