<?xml version="1.0" encoding="utf-8"?>
<!-- Generator: Adobe Illustrator 25.1.0, SVG Export Plug-In . SVG Version: 6.00 Build 0)  -->
<svg version="1.1" id="Слой_1" xmlns="http://www.w3.org/2000/svg" xmlns:xlink="http://www.w3.org/1999/xlink" x="0px" y="0px"
	 viewBox="0 0 300 300" style="enable-background:new 0 0 300 300;" xml:space="preserve">
<style type="text/css">
	.st0{fill:#71CEEA;}
	.st1{fill:#FFFFFF;}
</style>
<rect class="st0" width="300" height="300"/>
<path class="st1" d="M12.32,300c0,0-0.81-6.74,0-8.78c0.96-2.4,5.02-6,7.12-7.52c17.88-12.87,79.91-37.19,79.91-37.19
	s5.51-7.99,6.33-11.08c0.53-2.01-1.11-6.55,0-8.31c1.11-1.76,6.4-1.8,7.52-3.56c2.64-4.18,1.78-20.08,1.78-20.08
	s-5.78-9.03-6.68-12.41c-1.15-4.36-1.41-14.62-4.99-17.36c-0.47-0.36-1.87,0.32-2.37,0c-3.78-2.41-5.66-12.26-6.73-16.62
	c-0.75-3.09-1.86-9.55-1.19-12.66c0.17-0.78,0.87-2.4,1.58-2.77c0.97-0.5,4.35,0,4.35,0s-4.49-13.86-5.54-18.59
	c-0.88-4-2.13-12.13-2.37-16.22c-0.21-3.56,0.4-14.24,0.4-14.24l1.19-6.73c0,0,3.8,1.56,5.14,1.58c1.54,0.03,4.51-1.01,5.93-1.58
	c1.69-0.69,4.95-2.42,6.38-3.56c3.88-3.08,10.06-11.1,14.19-13.84c3.4-2.26,11.09-5.3,15.03-6.34c4.24-1.11,13.04-2.27,17.41-1.98
	c4.07,0.27,12.07,2.36,15.82,3.96c3.43,1.46,10.05,5.22,12.63,7.91c1.81,1.89,3.61,7,5.17,9.1c2.22,2.97,8.25,7.58,10.29,10.68
	c2.12,3.22,5.29,10.44,5.93,14.24c0.99,5.85,1.47,17.99,0,23.74c-0.63,2.44-4.19,6.58-4.35,9.1c-0.1,1.56,1.81,4.38,1.98,5.93
	c0.5,4.65-0.43,14.18-1.98,18.59c-0.82,2.34-2.96,6.98-4.75,8.7c-0.8,0.77-3.26,1.12-3.96,1.98c-2.04,2.54-2.07,9.58-3.16,12.66
	c-1.64,4.63-8.56,13.82-9.59,17.21c-0.5,1.64,2.47,18.4,2.47,18.4s6.35,2.52,7.52,4.35c1.18,1.84,0.23,6.59,0.79,8.7
	c0.73,2.74,4.75,10.29,4.75,10.29s62.05,26.4,80.7,38.77c1.87,1.24,5.8,3.89,6.73,5.93c0.98,2.18,0,9.57,0,9.57H12.32z"/>
</svg>
