<?xml version="1.0" encoding="utf-8"?>
<!-- Generator: Adobe Illustrator 26.3.1, SVG Export Plug-In . SVG Version: 6.00 Build 0)  -->
<svg version="1.1" id="Слой_1" xmlns="http://www.w3.org/2000/svg" xmlns:xlink="http://www.w3.org/1999/xlink" x="0px" y="0px"
	 viewBox="0 0 142 53" style="enable-background:new 0 0 142 53;" xml:space="preserve">
<style type="text/css">
	.st0{fill:#FFDA41;}
	.st1{fill:#E6233A;}
	.st2{fill:#EFAF2F;}
	.st3{fill:#FFED7C;}
	.st4{fill:#262B5F;}
	.st5{opacity:0.6;}
	.st6{fill:#FFFFFF;}
	.st7{opacity:0.3;}
	.st8{fill:#439FD9;}
	.st9{fill:#7ACCE7;}
	.st10{fill:#4A494A;}
</style>
<g>
	<g>
		<g>
			<g>
				<path class="st0" d="M15.2,34.6c0.1,0,0.2,0,0.3,0c0-0.2-0.1-0.4-0.1-0.7l-0.1-0.1c-1.1-0.5-1.7-1.6-1.6-2.8l0.1-1
					c-0.2-0.2-0.3-0.4-0.4-0.7c-0.6,0.2-1.1,0.5-1.5,1.1c-0.6,0.8-0.8,1.6-0.8,1.6c-0.1,0.4-0.4,0.6-0.8,0.6c0,0,0,0-0.1,0
					c-0.3,0-0.7-0.2-0.8-0.5c-1.1-2.8-1-5,0.1-6.6c1.1-1.5,2.9-1.9,4.1-2.1c0.3-1.7,0.7-3.3,1.2-4.9c0.7-2.2,1.5-4.2,2.5-6.1
					C18.2,11.2,19,10,20,8.9l0,0l0,0c0.3-0.4,0.7-0.7,1.1-1.1c-8.4,0.4-15,7.2-15,15.6c0,5,2.3,9.4,6,12.3c0.6-0.5,1.3-0.8,2.1-1
					C14.5,34.6,14.9,34.6,15.2,34.6z"/>
			</g>
		</g>
		<g>
			<g>
				<path class="st0" d="M33.7,13.5c0,0.6-0.1,1.1-0.1,1.7l0,0l0,0c-0.2,1.4-0.6,2.8-1.1,4.2c-0.8,2-1.8,4-3,5.9
					c-0.9,1.4-1.9,2.8-2.9,4.1c0.7,1,1.5,2.6,1.1,4.4c-0.4,1.9-2.1,3.3-4.9,4.4c-0.1,0-0.2,0.1-0.3,0.1c-0.3,0-0.5-0.1-0.7-0.3
					c-0.2-0.3-0.2-0.7,0-1c0,0,0.5-0.7,0.7-1.7c0.2-0.7,0.1-1.3-0.1-1.9c-0.2,0.1-0.5,0.1-0.7,0.1c0,0,0,0-0.1,0L21,34.2
					c-0.5,0.6-1.2,0.9-2,0.9c-0.4,0-0.8-0.1-1.1-0.2l-0.1-0.1c-0.3,0.2-0.5,0.3-0.6,0.4c0.3,0.3,0.6,0.6,0.8,1.1
					c0.4,0.7,0.6,1.5,0.6,2.3c1,0.2,2.1,0.3,3.2,0.3c8.6,0,15.6-7,15.6-15.6C37.3,19.6,36,16.2,33.7,13.5z"/>
			</g>
		</g>
	</g>
	<g>
		<g>
			<g>
				<g>
					<path class="st1" d="M16.2,35.6c0,0,2.4,1.9,1.1,4.5s-4.3,2.1-4.9,3.4c0.6-1.3-1.7-3.3-0.6-6s4.1-2.1,4.1-2.1"/>
				</g>
			</g>
			<g>
				<g>
					<path class="st2" d="M15.8,36.1c-0.5-0.1-2-0.1-2.6,1.4c-0.4,1.1-0.1,2,0.3,3.1c0,0.1,0.1,0.2,0.1,0.4c0.1,0,0.2-0.1,0.4-0.1
						c1-0.4,2-0.7,2.5-1.8C17.2,37.6,16.2,36.5,15.8,36.1z"/>
				</g>
			</g>
			<g>
				<g>
					<path class="st3" d="M15.7,36.4c-0.3,0-1.1,0-1.4,0.8c-0.2,0.6,0,1.1,0.2,1.7c0,0.1,0.1,0.1,0.1,0.2c0.1,0,0.1,0,0.2-0.1
						c0.6-0.2,1.1-0.4,1.4-1C16.4,37.2,15.9,36.6,15.7,36.4z"/>
				</g>
			</g>
			<g>
				<g>
					<path class="st4" d="M12.4,43.8h-0.1c-0.1-0.1-0.2-0.2-0.2-0.3v-0.1c0.2-0.4,0-1-0.3-1.8c-0.4-1.1-1-2.6-0.3-4.2
						c0.5-1.2,1.5-1.9,2.8-2.2c1-0.2,1.8,0,1.9,0s0.1,0,0.1,0.1c0,0,0.7,0.6,1.2,1.4c0.7,1.2,0.7,2.4,0.2,3.5
						c-0.8,1.6-2.2,2.1-3.4,2.5c-0.7,0.3-1.4,0.5-1.5,0.9C12.6,43.8,12.5,43.8,12.4,43.8z M15.2,35.8c-0.9,0-2.5,0.3-3.1,1.9
						c-0.6,1.4-0.1,2.6,0.3,3.7c0.2,0.5,0.3,0.9,0.4,1.3c0.3-0.2,0.8-0.4,1.2-0.5c1.1-0.4,2.3-0.8,3-2.2c1-2.1-0.8-3.8-1.1-4.1
						C15.8,35.8,15.5,35.8,15.2,35.8z"/>
				</g>
			</g>
			<g>
				<g>
					<path class="st4" d="M12.7,43.6l-2.2,4.1c0,0.1-0.2,0-0.1-0.1l1.7-4.3C12.3,42.9,12.9,43.2,12.7,43.6L12.7,43.6z"/>
				</g>
			</g>
		</g>
		<g>
			<g>
				<path class="st1" d="M14.8,24.4c0,0-7.5-0.4-4.5,7.6c0,0,0.9-3.9,4.3-3.4L14.8,24.4z"/>
			</g>
		</g>
		<g class="st5">
			<g>
				<path class="st6" d="M14.8,25.2v-0.8c0,0-7.5-0.4-4.5,7.6l0,0C8.5,25.7,13.5,25.2,14.8,25.2z"/>
			</g>
		</g>
		<g>
			<g>
				<path class="st4" d="M10.4,32.3c-0.1,0-0.3-0.1-0.3-0.2c-1-2.6-1-4.7,0-6.1c1.5-2.1,4.6-1.9,4.8-1.9c0.2,0,0.3,0.2,0.3,0.3
					L15,28.5c0,0.1,0,0.2-0.1,0.2c-0.1,0.1-0.2,0.1-0.3,0.1c-1.3-0.2-2.3,0.3-3.1,1.4c-0.6,0.9-0.9,1.8-0.9,1.8
					C10.7,32.2,10.5,32.3,10.4,32.3L10.4,32.3z M14.5,24.7c-0.8,0-2.8,0.2-3.9,1.6c-0.8,1.1-0.9,2.6-0.3,4.6
					c0.1-0.3,0.4-0.7,0.6-1.1c0.9-1.2,2-1.8,3.4-1.7L14.5,24.7z"/>
			</g>
		</g>
		<g>
			<g>
				<path class="st1" d="M25.2,29.1c0,0,5.2,5.4-2.8,8.3c0,0,2.4-3.3-0.3-5.5L25.2,29.1z"/>
			</g>
		</g>
		<g class="st7">
			<g>
				<path class="st4" d="M22.6,37.2c0.5-0.8,1.7-3.4-0.4-5.2l2.1-2C25.3,31.2,27.3,34.7,22.6,37.2z"/>
			</g>
		</g>
		<g>
			<g>
				<path class="st4" d="M22.5,37.8c-0.1,0-0.2,0-0.3-0.1c-0.1-0.1-0.1-0.3,0-0.4c0,0,0.6-0.8,0.8-1.8c0.3-1.3,0-2.4-1-3.3
					c-0.1-0.1-0.1-0.1-0.1-0.2c0-0.1,0-0.2,0.1-0.2l3-2.8c0.1-0.1,0.3-0.1,0.5,0c0.1,0.1,2.2,2.4,1.7,4.8c-0.4,1.7-1.9,3.1-4.6,4
					C22.5,37.8,22.5,37.8,22.5,37.8z M22.7,31.9c1,1,1.3,2.2,0.9,3.7c-0.1,0.5-0.3,0.9-0.4,1.2c1.9-0.8,3-1.9,3.3-3.2
					c0.4-1.7-0.8-3.4-1.3-4L22.7,31.9z"/>
			</g>
		</g>
		<g>
			<g>
				<g>
					<path class="st8" d="M18.8,29.6l3.7,1.7l-2.2,2.5c-0.5,0.6-1.4,0.8-2.2,0.5l-1.2-0.6l-1.2-0.6c-0.8-0.3-1.2-1.1-1.1-2l0.4-3.3
						L18.8,29.6"/>
				</g>
			</g>
			<g class="st7">
				<g>
					<path class="st4" d="M19.2,29.7l-2,2.2c-0.5,0.6-1.4,0.8-2.2,0.5l-0.1-0.1c0.2,0.3,0.5,0.6,0.8,0.7l1.2,0.6l1.2,0.6
						c0.8,0.3,1.6,0.2,2.2-0.5l2.2-2.5L19.2,29.7z"/>
				</g>
			</g>
			<g>
				<g>
					<path class="st4" d="M18.9,34.7c-0.3,0-0.6-0.1-0.9-0.2l-2.4-1.1c-0.9-0.4-1.4-1.3-1.3-2.3l0.4-3.3c0-0.1,0.1-0.2,0.2-0.2
						s0.2-0.1,0.3,0l3.7,1.7l0,0l3.7,1.7c0.1,0,0.2,0.1,0.2,0.2s0,0.2-0.1,0.3L20.5,34C20.1,34.4,19.5,34.7,18.9,34.7z M15.3,28.3
						l-0.4,2.8c-0.1,0.7,0.3,1.3,0.9,1.6l2.4,1.1c0.6,0.3,1.3,0.1,1.8-0.4l1.9-2.1l-3.3-1.5l0,0L15.3,28.3z"/>
				</g>
			</g>
		</g>
		<g>
			<g>
				<g>
					<path class="st6" d="M22.8,32.2c-0.5,0.5-1.3,0.6-1.9,0.3L15,29.8c-0.6-0.3-1-0.9-1-1.6c0.1-2.5,0.8-8.9,4.2-15.3
						c0.7-1.4,1.5-2.5,2.3-3.4c3.1-3.6,6.8-4.4,8.5-4.6c0.6-0.1,1.2,0.2,1.6,0.7c1,1.4,2.7,4.8,2.1,9.5c-0.2,1.2-0.5,2.6-1.1,4
						C29,25.8,24.7,30.5,22.8,32.2z"/>
				</g>
			</g>
			<g>
				<g>
					<path class="st1" d="M32.8,15c-5.1-6.9-12.2-5.6-12.2-5.6c3.1-3.6,6.8-4.4,8.5-4.6c0.6-0.1,1.2,0.2,1.6,0.7
						C31.7,7,33.4,10.3,32.8,15z"/>
				</g>
			</g>
			<g class="st5">
				<g>
					<path class="st6" d="M30.6,5.4c-0.1,0-0.3,0-0.4,0c-1.7,0.2-5.4,1.1-8.5,4.6c-0.8,0.9-1.6,2.1-2.3,3.4
						c-2.8,5.4-3.7,10.7-4,13.8c-0.1,0.6-0.1,1.1-0.1,1.6s0.2,1,0.6,1.4L15.3,30l-0.2-0.1c-0.6-0.3-1-0.9-1-1.6
						c0.1-2.5,0.8-8.9,4.2-15.3c0.7-1.4,1.5-2.5,2.3-3.4C23.7,6,27.4,5.2,29.1,5C29.6,4.8,30.2,5,30.6,5.4z"/>
				</g>
			</g>
			<g class="st7">
				<g>
					<path class="st4" d="M31.8,14.6c-0.2,1.2-0.5,2.6-1.1,4c-2.7,6.8-7,11.4-8.9,13.2c-0.4,0.4-1,0.6-1.5,0.4l-4.6-2.1
						c-0.4-0.3-0.6-0.8-0.6-1.4c0-0.4,0.1-1,0.1-1.6l3.5,1.6c0.6,0.3,1.4,0.2,1.9-0.3c1-0.9,2.6-2.6,4.3-5c1.7-0.3,3.3-1.5,4-3.1
						c0.6-1.4,0.6-2.9,0.1-4.2c0.1-0.3,0.2-0.6,0.4-0.9c0.6-1.4,0.9-2.8,1.1-4c0.3-1.9,0.1-3.6-0.2-5.1C31.3,8,32.3,10.9,31.8,14.6z
						"/>
				</g>
			</g>
			<g>
				<g>
					<path class="st4" d="M32.8,15.4c-0.1,0-0.2,0-0.3-0.1c-2.6-3.5-5.6-4.8-7.8-5.2c-2.3-0.5-4.1-0.2-4.1-0.2
						c-0.2,0-0.4-0.1-0.4-0.3s0.1-0.4,0.3-0.4c0.1,0,1.9-0.3,4.3,0.2c2.3,0.5,5.5,1.9,8.2,5.5c0.1,0.1,0.1,0.4-0.1,0.5
						C32.9,15.3,32.8,15.4,32.8,15.4z"/>
				</g>
			</g>
			<g>
				<g>
					<path class="st4" d="M21.6,33.1c-0.3,0-0.6-0.1-0.8-0.2l-5.9-2.7c-0.8-0.3-1.2-1.1-1.2-2c0.1-2.5,0.8-8.9,4.2-15.5
						c3.5-6.7,8.9-8,11.1-8.2c0.7-0.1,1.5,0.2,1.9,0.9c1.2,1.8,3.8,6.8,1,13.8c-2.7,6.9-7.2,11.6-8.9,13.3
						C22.7,32.9,22.2,33.1,21.6,33.1z M29.3,5.2c-0.1,0-0.1,0-0.2,0c-2.1,0.2-7.3,1.5-10.6,7.9s-4,12.8-4.1,15.2
						c0,0.6,0.3,1.1,0.8,1.3l5.9,2.7c0.5,0.2,1.1,0.1,1.5-0.3c1.7-1.7,6.1-6.3,8.8-13.1c2.7-6.7,0.2-11.4-1-13.2
						C30.1,5.4,29.7,5.2,29.3,5.2z"/>
				</g>
			</g>
		</g>
		<g>
			<g>
				<path class="st1" d="M20,26.8c0,0,1.1,1.9,0.1,4.1c-0.9,2.2-3.8,3.9-3.8,3.9s-0.6-3.3,0.5-5.4C17.9,27.2,20,26.8,20,26.8z"/>
			</g>
		</g>
		<g class="st5">
			<g>
				<path class="st6" d="M17.3,30.2c0.9-1.9,2.8-2.5,3.1-2.5c-0.1-0.5-0.3-0.9-0.3-0.9s-2.1,0.4-3.2,2.5s-0.5,5.4-0.5,5.4
					s0.1-0.1,0.3-0.2C16.6,33.4,16.6,31.5,17.3,30.2z"/>
			</g>
		</g>
		<g>
			<g>
				<path class="st4" d="M16.4,35h-0.1c-0.1,0-0.2-0.1-0.2-0.2c0-0.1-0.6-3.4,0.5-5.6s3.3-2.7,3.4-2.7s0.3,0,0.4,0.2
					c0,0.1,1.1,2.1,0.2,4.3s-3.8,4-3.9,4C16.5,35,16.5,35,16.4,35z M19.9,27.1c-0.6,0.2-1.9,0.8-2.7,2.3c-0.7,1.5-0.6,3.7-0.5,4.7
					c0.8-0.6,2.6-1.9,3.2-3.5C20.5,29.1,20.1,27.7,19.9,27.1z"/>
			</g>
		</g>
		<g>
			<g>
				<g>
					<g>
						<circle class="st8" cx="24" cy="18.1" r="4.5"/>
					</g>
				</g>
				<g class="st5">
					<g>
						<path class="st6" d="M20.5,17.1c1-2.3,3.7-3.3,6-2.2c0.6,0.3,1.2,0.7,1.6,1.2c-0.4-0.9-1.2-1.6-2.1-2c-2.3-1-4.9,0-6,2.2
							c-0.7,1.6-0.4,3.5,0.7,4.8C19.9,19.8,19.9,18.4,20.5,17.1z"/>
					</g>
				</g>
				<g>
					<g>
						<path class="st4" d="M24,22.9c-0.7,0-1.4-0.1-2-0.4c-1.2-0.5-2.1-1.5-2.5-2.7s-0.4-2.5,0.1-3.7c1.1-2.4,4-3.5,6.4-2.4
							s3.5,4,2.4,6.4l0,0c-0.5,1.2-1.5,2.1-2.7,2.5C25.1,22.8,24.6,22.9,24,22.9z M24,13.9c-1.6,0-3.1,0.9-3.8,2.4
							c-0.5,1-0.5,2.2-0.1,3.2s1.2,1.9,2.2,2.3c1,0.5,2.2,0.5,3.2,0.1s1.9-1.2,2.3-2.2l0,0c1-2.1,0-4.6-2.1-5.5
							C25.2,14,24.6,13.9,24,13.9z"/>
					</g>
				</g>
			</g>
			<g>
				<g>
					<g>
						<ellipse class="st9" cx="24" cy="18.1" rx="2.7" ry="2.7"/>
					</g>
				</g>
				<g class="st7">
					<g>
						<path class="st4" d="M22.1,18c0.6-1.4,2.2-2,3.6-1.3c0.4,0.2,0.7,0.4,0.9,0.7c-0.2-0.7-0.7-1.4-1.5-1.7c-1.4-0.6-3,0-3.6,1.3
							c-0.5,1-0.3,2.1,0.4,2.9C21.8,19.3,21.8,18.6,22.1,18z"/>
					</g>
				</g>
				<g>
					<g>
						<path class="st4" d="M24,21.2c-0.4,0-0.9-0.1-1.3-0.3c-0.7-0.3-1.3-0.9-1.6-1.7c-0.3-0.8-0.3-1.6,0.1-2.3
							c0.3-0.7,0.9-1.3,1.7-1.6c0.8-0.3,1.6-0.3,2.3,0.1c1.5,0.7,2.2,2.5,1.5,4C26.3,20.5,25.1,21.2,24,21.2z M24,15.7
							c-0.9,0-1.8,0.5-2.2,1.4c-0.5,1.2,0,2.6,1.2,3.2c1.2,0.5,2.6,0,3.2-1.2c0.5-1.2,0-2.6-1.2-3.2C24.7,15.8,24.3,15.7,24,15.7z"
							/>
					</g>
				</g>
			</g>
		</g>
	</g>
	<g>
		<g>
			<path class="st6" d="M11.1,20.5c0.3,0,0.6-0.1,1-0.2c-0.3-0.1-0.7-0.2-1-0.2c0-0.3-0.1-0.6-0.2-1c-0.1,0.3-0.2,0.7-0.2,1
				c-0.6,0-1,0.2-1,0.2s0.4,0.2,1,0.2c0,0.6,0.2,1,0.2,1S11.1,21.1,11.1,20.5z"/>
		</g>
	</g>
	<g>
		<g>
			<path class="st6" d="M30,31c0.3,0,0.6-0.1,1-0.2c-0.3-0.1-0.7-0.2-1-0.2c0-0.3-0.1-0.6-0.2-1c-0.1,0.3-0.2,0.7-0.2,1
				c-0.6,0-1,0.2-1,0.2s0.4,0.2,1,0.2c0,0.6,0.2,1,0.2,1S29.9,31.6,30,31z"/>
		</g>
	</g>
	<g>
		<g>
			<path class="st6" d="M34.2,22.4c0.2,0,0.4-0.1,0.6-0.1c-0.2-0.1-0.4-0.1-0.6-0.1c0-0.2-0.1-0.4-0.1-0.6C34,21.7,34,22,34,22.2
				c-0.4,0-0.6,0.1-0.6,0.1s0.3,0.1,0.6,0.1c0,0.4,0.1,0.6,0.1,0.6S34.2,22.8,34.2,22.4z"/>
		</g>
	</g>
	<g>
		<g>
			<path class="st6" d="M16,11.4c0.2,0,0.4-0.1,0.6-0.1c-0.2-0.1-0.4-0.1-0.6-0.1c0-0.2-0.1-0.4-0.1-0.6c-0.1,0.2-0.1,0.4-0.1,0.6
				c-0.4,0-0.6,0.1-0.6,0.1s0.3,0.1,0.6,0.1c0,0.4,0.1,0.6,0.1,0.6S16,11.7,16,11.4z"/>
		</g>
	</g>
</g>
<path class="st10" d="M50.9,11v17.4h-4.5V11H50.9z"/>
<path class="st10" d="M62.3,16.3h-4.2V15c0-0.6-0.1-1-0.2-1.1c-0.1-0.2-0.3-0.2-0.5-0.2c-0.3,0-0.5,0.1-0.6,0.3s-0.2,0.6-0.2,1
	c0,0.6,0.1,1,0.2,1.3c0.1,0.3,0.6,0.6,1.3,1.1c2,1.2,3.3,2.2,3.8,2.9c0.5,0.8,0.8,2,0.8,3.7c0,1.2-0.1,2.2-0.4,2.7s-0.9,1.1-1.7,1.5
	s-1.8,0.6-2.9,0.6c-1.2,0-2.2-0.2-3.1-0.7c-0.9-0.5-1.4-1-1.7-1.8c-0.3-0.7-0.4-1.7-0.4-3v-1.1h4.2v2.1c0,0.7,0.1,1.1,0.2,1.3
	c0.1,0.2,0.3,0.3,0.6,0.3s0.5-0.1,0.7-0.4c0.1-0.2,0.2-0.6,0.2-1.1c0-1-0.1-1.7-0.4-2c-0.3-0.3-1-0.8-2.1-1.6
	c-1.1-0.7-1.9-1.3-2.2-1.6c-0.4-0.3-0.7-0.8-0.9-1.4s-0.4-1.4-0.4-2.3c0-1.3,0.2-2.3,0.5-2.9s0.9-1.1,1.6-1.4
	c0.8-0.3,1.7-0.5,2.8-0.5c1.2,0,2.2,0.2,3,0.6c0.8,0.4,1.4,0.9,1.6,1.4c0.3,0.6,0.4,1.6,0.4,2.9L62.3,16.3L62.3,16.3z"/>
<path class="st10" d="M64.1,11h4.6c1.2,0,2.2,0.1,2.8,0.3c0.7,0.2,1.2,0.5,1.5,0.8c0.3,0.4,0.6,0.8,0.7,1.3s0.2,1.3,0.2,2.4v1.5
	c0,1.1-0.1,1.9-0.3,2.4c-0.2,0.5-0.6,0.9-1.3,1.2c-0.6,0.3-1.4,0.4-2.4,0.4h-1.2v7h-4.5L64.1,11L64.1,11z M68.6,14v4.4
	c0.1,0,0.2,0,0.3,0c0.4,0,0.7-0.1,0.9-0.3c0.2-0.2,0.2-0.6,0.2-1.3v-1.4c0-0.6-0.1-1-0.3-1.2C69.6,14.1,69.2,14,68.6,14z"/>
<path class="st10" d="M83.6,11v17.4H79V11H83.6z"/>
<path class="st10" d="M94.1,18.7h-3.8V18c0-0.7,0-1.1-0.1-1.3c-0.1-0.2-0.3-0.3-0.6-0.3c-0.2,0-0.4,0.1-0.5,0.2s-0.2,0.4-0.2,0.7
	c0,0.4,0,0.8,0.1,1s0.2,0.4,0.5,0.7c0.3,0.2,0.9,0.6,1.9,1.1c1.3,0.6,2.1,1.2,2.5,1.7s0.6,1.3,0.6,2.4c0,1.2-0.2,2-0.5,2.6
	s-0.8,1-1.5,1.4c-0.7,0.3-1.6,0.5-2.6,0.5c-1.1,0-2-0.2-2.8-0.5s-1.3-0.8-1.6-1.4c-0.3-0.6-0.4-1.5-0.4-2.7v-0.7h3.8v0.9
	c0,0.8,0,1.3,0.1,1.5s0.3,0.3,0.6,0.3c0.3,0,0.5-0.1,0.6-0.2c0.1-0.2,0.2-0.5,0.2-1c0-0.7-0.1-1.1-0.2-1.3c-0.2-0.2-1-0.7-2.5-1.5
	c-1.3-0.7-2.1-1.4-2.3-1.9c-0.3-0.6-0.4-1.3-0.4-2.1c0-1.1,0.2-2,0.5-2.5s0.8-1,1.5-1.3s1.6-0.4,2.5-0.4s1.7,0.1,2.4,0.4
	c0.7,0.2,1.2,0.6,1.5,1c0.4,0.4,0.6,0.8,0.6,1.1c0.1,0.3,0.1,0.9,0.1,1.6C94.1,18,94.1,18.7,94.1,18.7z"/>
<path class="st10" d="M100.1,11v2.3h-4.5V11H100.1z M100.1,14.2v14.3h-4.5V14.2H100.1z"/>
<path class="st10" d="M111.5,11v17.4h-4.3v-1c-0.4,0.4-0.9,0.8-1.3,1c-0.5,0.2-0.9,0.3-1.4,0.3c-0.7,0-1.3-0.2-1.8-0.5
	c-0.5-0.4-0.8-0.8-1-1.2c-0.1-0.5-0.2-1.2-0.2-2.3V18c0-1.1,0.1-1.9,0.2-2.3c0.1-0.5,0.5-0.9,1-1.2s1.1-0.5,1.8-0.5
	c0.5,0,1,0.1,1.5,0.3c0.4,0.2,0.9,0.5,1.2,0.9v-4h4.3V11z M107.2,17.8c0-0.5,0-0.9-0.1-1.1s-0.3-0.3-0.5-0.3c-0.3,0-0.4,0.1-0.5,0.2
	c-0.1,0.2-0.1,0.5-0.1,1.1v7c0,0.6,0,1,0.1,1.1s0.3,0.3,0.5,0.3c0.3,0,0.5-0.1,0.6-0.3s0.1-0.7,0.1-1.5L107.2,17.8L107.2,17.8z"/>
<path class="st10" d="M116.9,19.7h-4.1v-1c0-1.1,0.1-2,0.4-2.6s0.8-1.1,1.5-1.6c0.8-0.5,1.8-0.7,3-0.7c1.5,0,2.6,0.3,3.3,0.8
	c0.7,0.5,1.2,1.2,1.3,1.9c0.2,0.8,0.2,2.3,0.2,4.7v7.2h-4.2v-1.3c-0.3,0.5-0.6,0.9-1,1.1c-0.4,0.3-0.9,0.4-1.5,0.4
	c-0.8,0-1.5-0.2-2.1-0.6s-1-1.4-1-2.8V24c0-1.1,0.2-1.8,0.5-2.2s1.2-0.8,2.5-1.4c1.4-0.6,2.2-0.9,2.3-1.1s0.2-0.6,0.2-1.2
	c0-0.7-0.1-1.2-0.2-1.5c-0.1-0.2-0.3-0.3-0.6-0.3c-0.3,0-0.5,0.1-0.5,0.3c-0.1,0.2-0.1,0.7-0.1,1.5L116.9,19.7L116.9,19.7z
	 M118.3,21.7c-0.7,0.5-1.1,0.9-1.2,1.3c-0.1,0.3-0.2,0.8-0.2,1.5s0,1.2,0.1,1.4c0.1,0.2,0.3,0.3,0.6,0.3c0.3,0,0.4-0.1,0.5-0.3
	c0.1-0.2,0.1-0.6,0.1-1.3L118.3,21.7L118.3,21.7z"/>
<path class="st10" d="M54.3,35.7h2.2v7.2h-2.2V35.7z"/>
<path class="st10" d="M50.8,35.7H53V40c0,0.4-0.1,0.8-0.2,1.2s-0.3,0.7-0.6,1s-0.6,0.5-0.9,0.6C50.9,43,50.4,43,49.8,43
	c-0.3,0-0.7,0-1.1-0.1s-0.8-0.1-1-0.3S47,42.2,46.8,42s-0.4-0.5-0.5-0.8c-0.1-0.5-0.2-0.9-0.2-1.2v-4.3h2.2V40
	c0,0.4,0.1,0.7,0.3,0.9s0.5,0.3,0.9,0.3s0.7-0.1,0.9-0.3s0.3-0.5,0.3-0.9L50.8,35.7L50.8,35.7z"/>
<path class="st10" d="M61.8,35.7H64v5.4h3.5v1.8h-5.7V35.7z"/>
<path class="st10" d="M68.4,35.7h2V37h-2V35.7z M68.4,37.7h2v5.2h-2V37.7z"/>
<path class="st10" d="M71.7,35.7h2v2.5c0.2-0.2,0.4-0.4,0.7-0.5c0.3-0.1,0.5-0.2,0.8-0.2c0.6,0,1.2,0.2,1.6,0.7s0.6,1.1,0.6,2
	c0,0.6-0.1,1.1-0.3,1.5c-0.2,0.4-0.5,0.8-0.8,1C76,42.9,75.6,43,75.2,43c-0.3,0-0.7-0.1-1-0.2c-0.2-0.1-0.5-0.3-0.7-0.7v0.8h-1.9
	L71.7,35.7L71.7,35.7z M73.7,40.2c0,0.4,0.1,0.8,0.3,1c0.2,0.2,0.4,0.3,0.6,0.3s0.4-0.1,0.6-0.3s0.2-0.5,0.2-1
	c0-0.4-0.1-0.7-0.2-0.9C75,39.1,74.8,39,74.6,39c-0.3,0-0.5,0.1-0.7,0.3C73.7,39.5,73.7,39.8,73.7,40.2z"/>
<path class="st10" d="M78.3,37.7h1.9v0.8c0.2-0.4,0.4-0.6,0.6-0.8c0.2-0.1,0.4-0.2,0.7-0.2c0.3,0,0.6,0.1,1,0.3l-0.6,1.4
	c-0.2-0.1-0.4-0.1-0.6-0.1c-0.3,0-0.5,0.1-0.6,0.3c-0.2,0.3-0.3,0.9-0.3,1.7v1.7h-2L78.3,37.7L78.3,37.7z"/>
<path class="st10" d="M84.7,39.3l-1.9-0.2c0.1-0.3,0.2-0.6,0.3-0.8c0.1-0.2,0.3-0.4,0.6-0.5c0.2-0.1,0.4-0.2,0.8-0.2s0.7-0.1,1-0.1
	c0.6,0,1.1,0,1.4,0.1c0.4,0.1,0.7,0.2,0.9,0.4c0.2,0.1,0.3,0.4,0.4,0.6c0.1,0.3,0.1,0.5,0.1,0.8v2.3c0,0.2,0,0.4,0,0.6
	c0,0.1,0.1,0.3,0.2,0.5h-1.9c-0.1-0.1-0.1-0.2-0.1-0.3s0-0.2-0.1-0.3c-0.3,0.3-0.5,0.4-0.8,0.5c-0.1,0.2-0.6,0.3-1,0.3
	c-0.6,0-1.1-0.1-1.4-0.4c-0.3-0.3-0.5-0.6-0.5-1.1c0-0.4,0.1-0.7,0.3-1s0.7-0.4,1.3-0.6c0.7-0.1,1.2-0.3,1.5-0.3
	c0.2-0.1,0.5-0.1,0.7-0.2c0-0.2-0.1-0.4-0.2-0.5s-0.3-0.1-0.5-0.1c-0.3,0-0.6,0.1-0.7,0.2C84.9,39,84.8,39.1,84.7,39.3z M86.5,40.4
	c-0.3,0.1-0.6,0.2-0.9,0.3c-0.4,0.1-0.7,0.2-0.8,0.3c-0.1,0.1-0.2,0.2-0.2,0.4s0.1,0.3,0.2,0.4c0.1,0.1,0.3,0.1,0.5,0.1
	s0.4-0.1,0.6-0.2c0.2-0.1,0.3-0.2,0.4-0.4s0.1-0.4,0.1-0.6v-0.3H86.5z"/>
<path class="st10" d="M89.6,37.7h1.9v0.8c0.2-0.4,0.4-0.6,0.6-0.8c0.2-0.1,0.4-0.2,0.7-0.2c0.3,0,0.6,0.1,1,0.3l-0.6,1.4
	c-0.2-0.1-0.4-0.1-0.6-0.1c-0.3,0-0.5,0.1-0.6,0.3c-0.2,0.3-0.3,0.9-0.3,1.7v1.7h-2L89.6,37.7L89.6,37.7z"/>
<path class="st10" d="M94,37.7h2.1l1.1,3.5l1-3.5h2l-2.1,5.5c-0.2,0.6-0.5,1.1-0.7,1.3c-0.3,0.3-0.9,0.5-1.6,0.5
	c-0.3,0-0.7,0-1.3-0.1l-0.2-1.4c0.3,0.1,0.6,0.1,1,0.1c0.2,0,0.4-0.1,0.6-0.2s0.3-0.3,0.4-0.6L94,37.7z"/>
</svg>
