<?xml version="1.0" encoding="utf-8"?>
<!-- Generator: Adobe Illustrator 22.1.0, SVG Export Plug-In . SVG Version: 6.00 Build 0)  -->
<svg version="1.1" id="Слой_1" xmlns="http://www.w3.org/2000/svg" xmlns:xlink="http://www.w3.org/1999/xlink" x="0px" y="0px"
	 viewBox="0 0 841.9 595.3" style="enable-background:new 0 0 841.9 595.3;" xml:space="preserve">
<style type="text/css">
	.st0{fill:#707070;}
</style>
<path class="st0" d="M87,530.5c0-6,0-12,0-18c3.2-8.3,5.5-17.1,9.8-24.7c87.3-151.6,174.8-303,262.2-454.4c6.3-11,14.8-19.8,26-25.9
	C412.9-7.7,453-1,473.7,35c72,125.6,144.6,250.8,217,376.1c15.8,27.4,32.2,54.5,47,82.4c11.3,21.3,9.2,43.2-4,63.4
	c-13.5,20.8-33.4,29.3-57.9,29.3c-173.4-0.1-346.7-0.1-520.1-0.1c-2.8,0-5.6-0.1-8.3-0.3c-20.3-1.3-36.8-10.1-47.9-26.9
	C93.9,550.4,91.1,540.1,87,530.5z M458.1,236.1c0-31.5,0-62.9,0-94.4c0-16.4-7.4-23.7-24-23.8c-12.2,0-24.4,0-36.6,0
	c-16.9,0-24.1,7.3-24.1,24.3c0,61.8,0,123.7,0,185.5c0,3.4,0.1,6.9,0.6,10.2c4,27,31,42.9,56.6,33.5c16.9-6.2,27.3-21.9,27.3-41.7
	C458.2,298.6,458.1,267.4,458.1,236.1z M416.1,511.6c23.1-0.2,42.3-19.6,41.7-42.3c-0.6-23.2-19.7-41.9-42.6-41.5
	c-22.8,0.4-41.6,19.5-41.4,42.1C373.9,493,393.1,511.8,416.1,511.6z"/>
</svg>
