<?xml version="1.0" encoding="utf-8"?>
<!-- Generator: Adobe Illustrator 22.1.0, SVG Export Plug-In . SVG Version: 6.00 Build 0)  -->
<svg version="1.1" id="Слой_1" xmlns="http://www.w3.org/2000/svg" xmlns:xlink="http://www.w3.org/1999/xlink" x="0px" y="0px"
	 viewBox="0 0 841.9 595.3" style="enable-background:new 0 0 841.9 595.3;" xml:space="preserve">
<style type="text/css">
	.st0{fill:#707070;}
	.st1{fill:#FFFFFF;}
</style>
<g>
	<path class="st0" d="M632,554.3c-140,0-280,0-420,0c-0.9-0.3-1.8-0.7-2.7-1c-22-5.1-35.9-18.6-41.9-40.4c-0.4-1.6-0.9-3.1-1.3-4.7
		c0-125.7,0-251.3,0-377c0.4-1.3,0.8-2.5,1.1-3.8c5.2-20.8,17.8-34.8,38.5-40.5c6.3-1.7,13.2-1.6,19.8-1.9
		c8.4-0.3,16.9-0.1,25.9-0.1c0-5.6,0.3-10.6-0.1-15.5c-0.9-13.2,4-22.6,16.8-27.2c3,0,6,0,9,0c12.7,4.3,18,13.2,17.1,26.4
		c-0.4,5.2-0.1,10.5-0.1,16.1c85.5,0,170.5,0,256,0c0-5.5,0.3-10.8-0.1-16.1c-0.9-13.2,4.4-22.1,17.1-26.4c3,0,6,0,9,0
		c2.5,1.3,5.1,2.3,7.4,3.9c6.6,4.5,9.3,11,9.3,18.9c0,6.6,0,13.1,0,20c11.4,0,21.9-0.1,32.4,0c24.8,0.3,45.5,16.9,51.5,41
		c0.4,1.8,0.9,3.5,1.4,5.3c0,125.7,0,251.3,0,377c-0.3,0.9-0.7,1.8-1,2.7c-5.1,22-18.6,35.9-40.4,41.9
		C635.1,553.4,633.6,553.8,632,554.3z M635.2,213.4c-142.6,0-284.3,0-426.5,0c0,2,0,3.6,0,5.2c0,93,0,186,0,279c0,10.8,3.2,14,14,14
		c133,0,266,0,398.9,0c10.1,0,13.5-3.4,13.5-13.5c0-93,0-186,0-279C635.2,217.3,635.2,215.5,635.2,213.4z M208.9,170
		c142.2,0,284,0,426.2,0c0-11.3,0.2-22.2-0.1-33.2c-0.1-5-4.3-8.9-9.7-9.1c-10.6-0.3-21.3-0.1-31.8-0.1
		c-5.5,15.9-11.8,21.8-22.7,21.4c-10.9-0.4-17.3-6.7-21.5-21.3c-84.9,0-169.8,0-254.7,0c-3.5,14-10.1,20.6-21,21.3
		c-10.7,0.6-16.8-5-23.2-21.4c-10.4,0-20.9-0.2-31.3,0.1c-5.4,0.1-9.8,3.9-10,8.8C208.7,147.5,208.9,158.7,208.9,170z"/>
	<path class="st1" d="M166,508.3c0.4,1.6,0.9,3.1,1.3,4.7c6,21.7,19.9,35.3,41.9,40.4c0.9,0.2,1.8,0.6,2.7,1c-15.3,0-30.7,0-46,0
		C166,538.9,166,523.6,166,508.3z"/>
	<path class="st1" d="M632,554.3c1.6-0.4,3.1-0.9,4.7-1.3c21.7-6,35.3-19.9,40.4-41.9c0.2-0.9,0.6-1.8,1-2.7c0,15.3,0,30.7,0,46
		C662.7,554.3,647.3,554.3,632,554.3z"/>
	<path class="st0" d="M293.9,341c11.9-0.1,21.2,9.1,21.4,21c0.1,12.1-9.3,21.5-21.4,21.5c-11.9-0.1-21.1-9.3-21.1-21.2
		C272.8,350.4,282,341.1,293.9,341z"/>
	<path class="st0" d="M379.2,362.4c-0.1,11.9-9.4,21.1-21.3,21.1c-12.1,0-21.4-9.5-21.2-21.6c0.2-11.8,9.6-20.9,21.5-20.8
		C370.1,341.2,379.3,350.5,379.2,362.4z"/>
	<path class="st0" d="M443.2,362.3c0,11.8-9.3,21.2-21.1,21.2c-11.9,0-21.2-9.1-21.4-21c-0.1-12.1,9.3-21.5,21.4-21.5
		C434,341.1,443.2,350.4,443.2,362.3z"/>
	<path class="st0" d="M486.2,341c11.8,0.1,21.1,9.5,21,21.3c-0.1,12.1-9.6,21.3-21.7,21.2c-11.8-0.2-20.9-9.7-20.8-21.6
		C464.9,350.1,474.3,341,486.2,341z"/>
	<path class="st0" d="M550,383.5c-11.9,0-21.1-9.3-21.2-21.1c-0.1-11.9,9.2-21.3,21-21.3c12.1-0.1,21.5,9.3,21.5,21.4
		C571.2,374.3,561.9,383.5,550,383.5z"/>
	<path class="st0" d="M379.2,277.1c-0.1,11.8-9.5,21.2-21.2,21.2c-11.9,0-21.4-9.7-21.2-21.7c0.2-11.7,9.9-21.2,21.5-21
		C370,255.8,379.3,265.3,379.2,277.1z"/>
	<path class="st0" d="M443.2,277.1c-0.1,11.8-9.5,21.2-21.2,21.2c-11.8,0-21.2-9.4-21.2-21.2c0-12,9.7-21.7,21.5-21.5
		C434,255.8,443.3,265.3,443.2,277.1z"/>
	<path class="st0" d="M464.8,277c0-11.8,9.3-21.3,21-21.5c11.8-0.2,21.5,9.5,21.4,21.6c-0.1,11.8-9.5,21.2-21.3,21.2
		C474.2,298.2,464.8,288.8,464.8,277z"/>
	<path class="st0" d="M571.2,276.7c0.1,11.8-9.2,21.4-20.9,21.6c-11.8,0.2-21.4-9.1-21.6-20.9c-0.2-12,9.2-21.8,21.1-21.9
		C561.6,255.5,571.1,265,571.2,276.7z"/>
	<path class="st0" d="M272.8,447.4c0.1-11.8,9.6-21.1,21.4-21.1c11.9,0.1,21.3,9.8,21.1,21.8c-0.2,11.7-10,21.2-21.6,20.9
		C281.8,468.7,272.7,459.2,272.8,447.4z"/>
	<path class="st0" d="M379.2,447.8c-0.1,11.7-9.6,21.3-21.3,21.2c-11.7,0-21.2-9.5-21.2-21.3c0-12,9.5-21.5,21.5-21.4
		C370,426.4,379.3,435.9,379.2,447.8z"/>
	<path class="st0" d="M443.2,447.3c0.1,12-9.5,21.7-21.3,21.7c-11.7-0.1-21.1-9.6-21.1-21.4c0-11.8,9.4-21.3,21.1-21.4
		C433.6,426.2,443.1,435.6,443.2,447.3z"/>
	<path class="st0" d="M507.2,447.5c0.1,11.8-9.2,21.3-21,21.5c-11.8,0.2-21.5-9.5-21.5-21.5c0-11.8,9.5-21.2,21.2-21.2
		C497.8,426.3,507.2,435.7,507.2,447.5z"/>
</g>
</svg>
