<?xml version="1.0" encoding="utf-8"?>
<!-- Generator: Adobe Illustrator 22.1.0, SVG Export Plug-In . SVG Version: 6.00 Build 0)  -->
<svg version="1.1" id="Слой_1" xmlns="http://www.w3.org/2000/svg" xmlns:xlink="http://www.w3.org/1999/xlink" x="0px" y="0px"
	 viewBox="0 0 841.9 595.3" style="enable-background:new 0 0 841.9 595.3;" xml:space="preserve">
<style type="text/css">
	.st0{fill:url(#SVGID_1_);}
	.st1{fill:#1667B1;}
	.st2{fill:#E8405A;}
	.st3{fill:#1768B1;}
	.st4{fill:#1868B1;}
	.st5{fill:#FFFFFF;}
</style>
<g>
	<linearGradient id="SVGID_1_" gradientUnits="userSpaceOnUse" x1="334.5585" y1="485.578" x2="334.5585" y2="113.0049">
		<stop  offset="0" style="stop-color:#E8405A"/>
		<stop  offset="1" style="stop-color:#1868B1"/>
	</linearGradient>
	<path class="st0" d="M520.5,298.8c0.1-8.8,0.5-17.5-0.8-26.2c-0.1-5.7,0.3-11.4-1-17c0-4.6,0.1-9.3-1.1-13.8l0,0
		c-0.1-1.7,0.1-3.4-0.2-5c-5.5-27.1-17.8-50.2-40.2-66.9c-34.8-25.8-72.1-47.9-111.6-65.8c-27.3-12.3-55.5-12.3-82.8,0.1
		c-39.4,17.8-76.2,40-111.2,65.4c-8.6,6.2-15.9,13.7-21.8,22.5c-3.1,4.6-1.3,8.1,4.2,8.5c10.9,0.7,21.8,0.9,29.7-8.8
		c0.3-0.4,0.8-0.6,1.2-0.9c34.2-25.1,70.4-46.7,109-64.2c19.9-9,40.7-9,60.5-0.1c38.3,17.3,74.2,38.9,108.3,63.6
		c4.6,3.3,8.6,7.4,12.1,11.9c9.9,12.7,16.4,26.9,18.6,42.9c0,0,0,0,0,0v0c0,5.3,0.3,10.5,1.2,15.7c0,0,0,0,0,0c0,0,0,0,0,0
		c-0.3,6.4,0.5,12.7,1,19c0,0,0,0,0,0c0,0,0,0,0,0c0.1,4,0.2,8.1,0.2,12.1c-0.2,5.4-0.3,10.8,0.3,16.2c-0.1,1.2-0.1,2.4-0.1,3.6
		c0,0.7,0,1.4,0,2.2c0,0.2,0,0.4,0,0.6c-0.1,0.5,0,1,0,1.4c-0.1,5.6-0.2,11.2-0.3,16.9c-0.2,4.4-0.5,8.8-0.7,13.1c0,0,0,0,0,0
		c0,0,0,0,0,0c-0.4,5.6-0.8,11.2-1.2,16.8c-0.4,4-0.7,8.1-1.1,12.1l0,0c-4.4,19.7-13,37.3-29.5,49.6c-34.1,25.5-70.7,47-109.5,64.5
		c-18.7,8.4-38.8,8.9-57.4,0.6c-42.4-18.9-82.3-42.2-118.8-71.1c-2.5-2-5.1-3.7-8.5-3.6c-5,0.1-10-0.1-15,0
		c-5.6,0.1-7.4,3.6-4.3,8.3c4.6,6.8,9.7,13.2,16.3,18.1c36.3,27.6,75.3,50.9,116.8,69.8c27.5,12.5,55.7,12.4,83.2-0.1
		c38-17.3,73.6-38.7,107.6-62.8c12.6-8.9,22.6-20.1,30.2-33.4c7-12.4,12.6-25.3,13.6-39.8c0,0,0,0,0,0c0,0,0,0,0,0
		c1.1-4.6,1.2-9.3,1.1-14l0,0c1.2-4.6,1-9.3,0.9-14c0.6-4.6,1.1-9.3,0.8-14c0.1-5,0.1-10,0.2-15h0l0,0
		C520.9,311.4,521,305.1,520.5,298.8z"/>
	<g>
		<path class="st1" d="M229,259.2c-0.2,22-9.6,30.3-31.2,27.8c-12.6-1.5-18.3-7.2-19.9-20.7c-0.8-6.4-0.7-12.9,0.7-19.3
			c1.9-8.4,6.8-13.9,15.4-15.6c5.9-1.2,11.9-1.3,17.8-0.1c10,2,15.5,8.4,16.6,19C228.8,253.2,228.9,256.2,229,259.2z"/>
		<path class="st2" d="M294.3,338.1c0,7.7-0.1,15.3,0.1,23c0.1,3-0.8,4-3.9,4.1c-10.6,0.2-10.6,0.3-10.6-10.4c0-9-0.1-18,0.1-27
			c0.1-3.3-1-4.2-4.2-4.1c-8.2,0.1-8.2-0.1-9.4,8.1c-1.4,9.5-3.3,19-5.6,28.4c-0.9,3.6-2.2,5.2-6.3,5.1c-10-0.3-10.1-0.1-7.5-9.8
			c3.4-13.2,5.5-26.7,6.5-40.3c0.3-3.4,1.6-4.1,4.6-4.1c10.8,0.1,21.7,0.1,32.5,0c3.1,0,4.1,1,4,4.1
			C294.2,322.8,294.3,330.4,294.3,338.1z"/>
		<path class="st2" d="M330.9,347.2c4.4-10.7,7.9-20.8,10.5-31.1c1-3.9,2.6-5,6.4-4.9c9.6,0.2,9.6,0.1,6.7,9.1
			c-6.5,20.3-14.3,40.1-23,59.5c-1.8,4-3.9,5.6-8.2,5.2c-3.1-0.3-6.2-0.1-10.3-0.1c3-5.7,5.5-10.7,8.2-15.6c1.3-2.4,1.4-4.4,0.4-7
			c-5.8-15.4-11.2-31-17-46.3c-1.6-4.3-0.4-5,3.6-4.9c9.3,0.2,9.3,0,12.5,8.5C324,328.5,327.3,337.3,330.9,347.2z"/>
		<path class="st2" d="M162.5,347.1c4.6-10.8,7.9-20.5,10.3-30.4c1-4.2,2.7-5.6,7-5.5c9.2,0.3,9.2,0.1,6.4,8.8
			c-6.5,20.1-14.3,39.7-22.8,59.1c-2,4.4-4.3,6.2-9.3,5.9c-9.6-0.5-10.1-0.5-4.9-8.6c4.7-7.3,4.9-13.7,1.5-21.7
			c-5.6-13-9.8-26.5-14.7-39.7c-1.2-3.3-0.4-4,2.8-4c10.3-0.2,10.3-0.3,13.9,9.4C155.8,328.9,158.9,337.3,162.5,347.1z"/>
		<path class="st2" d="M459.8,336.9c0,7.2,0,14.3,0,21.5c0,1.8,0.4,3.7-2.1,4.4c-9.6,2.9-19.4,5.1-29.5,3.4
			c-10-1.7-15.1-7.6-15.6-18.4c-0.5-11.1-0.2-22.3-0.3-33.5c0-2.4,0.8-3.1,3.2-3.2c11-0.8,11-0.8,11,9.9c0,7.3-0.1,14.7,0,22
			c0.2,9.5,9.3,14.4,17.8,9.8c1.9-1,1.2-2.6,1.2-3.9c0.1-10.8,0.2-21.7,0-32.5c-0.1-4,0.8-5.6,5.2-5.5c9.1,0.3,9.1,0,9.1,9.4
			C459.8,325.9,459.8,331.4,459.8,336.9z"/>
		<path class="st2" d="M220.6,309.7c4.5-0.3,8.9,0.3,13.3,1.5c0.9,0.3,2.6,0.6,2.6,1.1c0.5,3.5-2.4,5.9-3.5,8.9
			c-0.6,1.7-1.6,2.6-3.8,2.1c-4.3-1.1-8.8-1.7-13.3-0.8c-4.2,0.8-6.9,3-7.7,7.3c-1.1,5.8-1.1,11.6,0.4,17.3c1.1,4.1,3.9,6.4,8.2,6.8
			c4.5,0.3,9,0.4,13.4-0.9c3-0.9,4.6-0.5,5.7,3c2.8,8.5,3,8.5-6.1,10c-6.4,1.1-12.8,1.3-19.3-0.2c-8.6-1.9-14.1-7-16.3-15.6
			c-2.1-8.2-2.2-16.5,0-24.6c2.6-9.5,9.5-14.9,20-15.9C216.3,309.6,218.5,309.7,220.6,309.7z"/>
		<path class="st3" d="M238.2,258.1c0.2-2.3,0.1-5.2,0.6-8c2.1-12.7,9.7-19,24.1-19.9c5.7-0.4,11.3,0.6,16.8,1.8
			c2.3,0.5,3.8,1.5,2,4c-0.3,0.4-0.5,0.9-0.7,1.3c-1.7,5.5-4.6,8.2-10.8,5.9c-2.6-0.9-5.6-0.6-8.4,0c-5.1,1-7.7,3.9-8.4,9.1
			c-0.6,4.7-0.6,9.3,0.2,13.9c1,5.7,4.1,8.4,9.9,8.7c4.2,0.2,8.4,0.3,12.4-1.1c3.3-1.1,4.6,0,5.7,3.1c3.1,8.8,3.2,8.7-6.4,10.1
			c-5.5,0.8-10.9,1.4-16.4,0.4c-13-2.4-19.3-9.5-20.2-22.7C238.4,262.5,238.3,260.5,238.2,258.1z"/>
		<path class="st4" d="M134.8,259.3c0-7.8,0.1-15.6-0.1-23.5c-0.1-3.1,1-4,4.1-4c10.7,0.1,21.3,0.1,32,0c2.7,0,3.5,0.6,2.6,3.4
			c-3.1,9.3-3.1,9.4-13.1,9.4c-11,0-11,0-11,10.8c0,8.8-0.1,17.6,0.1,26.5c0.1,2.9-0.7,4-3.9,4.1c-10.7,0.2-10.7,0.3-10.7-10.2
			C134.8,270.2,134.8,264.8,134.8,259.3z"/>
		<path class="st2" d="M365.7,338.3c0-7.7,0.1-15.3-0.1-23c-0.1-2.9,0.6-4.2,3.8-4.2c10.7,0.1,21.3,0.1,32,0c3.2,0,3.6,1.1,2.5,3.9
			c-3.3,8.8-3.2,8.8-12.5,8.8c-11.6,0-11.6,0-11.6,11.7c0,8.5-0.1,17,0.1,25.5c0.1,3.3-1,4.2-4.3,4.2c-10,0-10,0.2-10-9.9
			C365.7,349.6,365.7,343.9,365.7,338.3z"/>
		<path class="st5" d="M214.6,257.8c-0.2,3.1-0.1,5.3-0.4,7.4c-1.2,9-8,12.8-16.5,9.5c-3.7-1.4-4.7-4.6-5-7.9
			c-0.6-5.5-0.6-11,0-16.4c0.6-5.8,3.2-7.8,9.3-8c8.3-0.2,10.6,1.2,11.7,7.5C214.2,252.8,214.4,255.8,214.6,257.8z"/>
	</g>
</g>
</svg>
