<?xml version="1.0" encoding="utf-8"?>
<!-- Generator: Adobe Illustrator 22.1.0, SVG Export Plug-In . SVG Version: 6.00 Build 0)  -->
<svg version="1.1" id="Слой_1" xmlns="http://www.w3.org/2000/svg" xmlns:xlink="http://www.w3.org/1999/xlink" x="0px" y="0px"
	 viewBox="0 0 841.9 595.3" style="enable-background:new 0 0 841.9 595.3;" xml:space="preserve">
<style type="text/css">
	.st0{fill:#707070;}
</style>
<g>
	<path class="st0" d="M606.3,302.5c-4.7,5.7-9.4,11.4-14.1,17.1c-4.7,5.6-8.4,5.9-14,1.2c-50.8-42.4-101.6-84.7-152.4-127.1
		c-1.1-0.9-2.2-1.8-3.6-2.9c-5.7,4.7-11.4,9.5-17.1,14.2c-46.4,38.7-92.8,77.4-139.2,116c-5.3,4.4-9.1,4.1-13.5-1.1
		c-3.8-4.5-7.6-9-11.3-13.5c-4.4-5.3-4-9,1.3-13.5c40.6-33.8,81.2-67.7,121.8-101.5c13.3-11,26.5-22.2,39.8-33.1
		c9.3-7.7,19.8-8.6,30.6-3.7c2.9,1.3,5.4,3.5,7.9,5.5c16.6,13.8,33.1,27.7,49.7,41.5c0.8,0.7,1.7,1.2,2.9,2.2
		c0.1-1.6,0.2-2.8,0.2-3.9c0-12.7,0-25.4,0-38.1c0-7.1,2.4-9.5,9.5-9.5c13.1,0,26.1,0,39.2,0c7.3,0,9.7,2.5,9.7,9.7
		c0,29.1,0,58.3-0.1,87.4c0,2.5,0.7,4.2,2.7,5.8c15,12.3,29.9,24.7,44.8,37.2c2,1.6,3.4,3.9,5.1,5.8
		C606.3,299.7,606.3,301.1,606.3,302.5z"/>
	<path class="st0" d="M451.6,444.6c0-29.1,0-58,0-87.2c-19.6,0-38.9,0-58.6,0c0,29,0,58.1,0,87.5c-1.8,0-3.1,0-4.4,0
		c-26.8,0-53.7,0-80.5,0c-11.7,0-17.4-5.7-17.4-17.4c0-34.8,0-69.5,0-104.3c0-2.4,0.5-4.2,2.5-5.9c42-34.5,84-69.2,126-103.8
		c1-0.8,2-1.6,3.3-2.5c9.4,7.8,18.8,15.4,28.1,23.1c33.6,27.7,67.1,55.4,100.7,83c1.9,1.6,2.8,3.2,2.8,5.7
		c-0.1,35.4,0,70.7-0.1,106.1c0,9.6-6.1,15.9-15.7,15.9c-28,0.1-56.1,0-84.1,0C453.3,444.8,452.6,444.7,451.6,444.6z"/>
</g>
</svg>
