<?xml version="1.0" encoding="utf-8"?>
<!-- Generator: Adobe Illustrator 22.1.0, SVG Export Plug-In . SVG Version: 6.00 Build 0)  -->
<svg version="1.1" id="Слой_1" xmlns="http://www.w3.org/2000/svg" xmlns:xlink="http://www.w3.org/1999/xlink" x="0px" y="0px"
	 viewBox="0 0 841.9 595.3" style="enable-background:new 0 0 841.9 595.3;" xml:space="preserve">
<style type="text/css">
	.st0{fill:#707070;}
</style>
<g>
	<path class="st0" d="M477.1,431.4c-6.5,6.2-13.5,11.6-21.2,15.7c-7.8,4.2-16,7.1-24.9,8.4c0-24.5,0-48.8,0-73.3
		c15.4,0,30.7,0,46.1,0c0-6.3,0-12.4,0-18.6c-15.4,0-30.7,0-46,0c0-27.8,0-55.5,0-83.3c15.4,0,30.7,0,46,0c0-6.2,0-12.3,0-18.6
		c-15.4,0-30.7,0-46.1,0c0-27.8,0-55.4,0-83.2c0.5,0,0.8-0.1,1.2-0.1c28.1,0,56.2,0,84.3,0c0.9,0,1.3,0.3,1.7,1.2
		c5.2,15.3,8.9,30.9,11.2,46.9c1.5,10.2,2.5,20.5,3,30.9c0,0.7,0.4,1.5,0.9,2c6.9,6.6,14,13.1,20.9,19.7c0.9,0.9,1.9,1.3,3.2,1.3
		c15.8,0,31.6,0,47.4,0c0.6,0,1.1,0,2,0c-0.6,5.5-1,10.8-1.7,16c-1.1,8.3-2.8,16.5-5,24.5c-0.1,0.5,0.2,1.3,0.6,1.7
		c2.6,2.5,5.2,4.9,7.9,7.4c2.1,1.9,4.1,3.8,6.2,5.8c0.2-0.4,0.3-0.7,0.4-0.9c5.1-15.7,8.4-31.7,9.7-48.1c1.2-15.3,0.7-30.6-1.6-45.8
		c-2.9-19.8-8.7-38.8-17.3-56.9c-12.4-26.1-29.6-48.6-51.5-67.5c-15.2-13.1-31.9-23.7-50.3-31.8c-22.4-9.9-45.8-15.6-70.2-17.1
		c-16.2-1-32.4-0.1-48.4,2.8c-19.1,3.4-37.4,9.5-54.8,18.2c-26.5,13.3-49,31.4-67.6,54.4c-13.4,16.5-24,34.7-31.7,54.6
		c-8,20.7-12.5,42.2-13.5,64.4c-0.8,17.9,0.7,35.6,4.6,53.1c4.5,20.5,12,39.8,22.6,57.9c11.1,19.1,24.9,36,41.5,50.6
		c15.6,13.8,32.9,25,51.9,33.5c20.4,9.1,41.8,14.7,64.1,16.8c12.1,1.1,24.3,1.2,36.4,0.1c12.5-1.1,24.7-3.4,36.8-6.6
		c1-0.3,1.4-0.6,1.4-1.8c0-10.9,0-21.9,0-32.8C477.2,432.5,477.1,432.1,477.1,431.4z M582.9,179.7c10.4,18.5,17.6,38.1,21.1,59
		c1.3,7.5,2,15.2,3,22.9c-18.9,0-37.3,0-56,0c-0.9-28.3-5.2-56-14-83.2c0.7,0,1.2-0.1,1.8-0.1c14,0,27.9,0,41.9,0
		C581.8,178.4,582.4,178.8,582.9,179.7z M534.7,124.3c12,9.2,30.7,28.2,34.9,35.6c-3.4,0-6.6,0-9.8,0c-9.2,0-18.5,0-27.7,0
		c-1.5,0-2.1-0.4-2.7-1.7c-5.7-13.7-12.8-26.7-21.4-38.8c-4.7-6.5-9.7-12.7-15.3-18.5c-0.4-0.4-0.7-0.8-1.1-1.2
		C496.7,100.2,522.4,114.9,534.7,124.3z M431,86.3c3.6,0.9,7,1.5,10.4,2.5c12.1,3.6,22.6,10.1,32,18.4
		c13.3,11.8,23.4,26.1,31.6,41.8c1.6,3.1,3.1,6.3,4.6,9.4c0.2,0.4,0.3,0.8,0.5,1.3c-26.5,0-52.8,0-79.2,0
		C431,135.4,431,111.1,431,86.3z M308.2,124.6c13-10.1,27.1-18.4,42.5-24.4c-2.5,2.9-5.1,5.7-7.6,8.6c-8.3,9.6-15.3,20.2-21.1,31.5
		c-3.1,6.1-5.9,12.3-8.7,18.5c-0.3,0.7-0.6,1.1-1.4,1.1c-12.5,0-25,0-37.5,0c-0.1,0-0.3,0-0.6-0.1
		C283.7,146.5,295.2,134.8,308.2,124.6z M237,255.3c1.5-16.2,4.9-32,10.5-47.3c3.6-9.9,8-19.3,13.2-28.5c0.4-0.7,0.9-1.1,1.8-1.1
		c14,0,28.1,0,42.1,0c0.4,0,0.8,0.1,1.4,0.1c-8.6,27.1-12.9,54.8-13.7,83.2c-18.6,0-37,0-55.6,0C236.7,259.5,236.8,257.4,237,255.3z
		 M260.5,362.4c-9.4-16.5-16.1-34.1-20.1-52.7c-1.9-9-3.2-18.2-3.8-27.4c0-0.6,0-1.2,0-1.9c18.5,0,36.9,0,55.6,0
		c0.8,28.3,5.1,56,13.8,83.2c-0.7,0-1.2,0-1.6,0c-13.9,0-27.8,0-41.7,0C261.6,363.7,261.1,363.3,260.5,362.4z M273.6,382.2
		c0.7,0,1.1,0,1.5,0c12.1,0,24.2,0,36.3,0c1.1,0,1.6,0.5,2,1.4c5.5,13.2,12.1,25.8,20.3,37.6c4.9,7,10.3,13.5,16.2,19.7
		c0.4,0.4,0.7,0.8,1.1,1.2C319.8,429.2,294.2,409.2,273.6,382.2z M412.3,455.7c-3.4-0.8-6.8-1.5-10.1-2.4
		c-11.7-3.5-21.9-9.6-31.1-17.5c-12.9-11.2-23-24.6-31.1-39.6c-2.2-4.1-4.2-8.3-6.2-12.5c-0.2-0.4-0.4-0.9-0.6-1.4
		c26.4,0,52.7,0,79.1,0C412.3,406.7,412.3,431,412.3,455.7z M412.3,363.6c-0.6,0-1.1,0-1.6,0c-27.8,0-55.6,0-83.4,0
		c-1.2,0-1.7-0.4-2.1-1.5c-5.1-15.1-8.8-30.6-11.1-46.3c-1.7-11.2-2.6-22.5-3.1-33.8c0-0.5,0-1,0-1.6c33.8,0,67.6,0,101.5,0
		C412.3,308.2,412.3,335.8,412.3,363.6z M412.3,261.6c-33.8,0-67.5,0-101.5,0c0-0.6,0-1.2,0-1.8c0.6-15.9,2.4-31.8,5.5-47.4
		c2.2-11.1,5.2-22,8.8-32.7c0.4-1,0.9-1.4,2-1.4c27.9,0,55.8,0,83.7,0c0.5,0,0.9,0,1.5,0C412.3,206.2,412.3,233.9,412.3,261.6z
		 M412.3,159.8c-26.4,0-52.7,0-79.2,0c0.7-1.5,1.4-3,2.1-4.4c7.5-16.1,17.2-30.8,29.8-43.4c10.5-10.5,22.5-18.8,36.9-23.1
		c3.4-1,6.8-1.7,10.5-2.6C412.3,111.1,412.3,135.4,412.3,159.8z"/>
	<path class="st0" d="M650,404.2c-4.7-4.5-9.4-8.9-14.1-13.3c-16.3-15.3-32.6-30.6-48.9-45.9c-18.4-17.3-36.9-34.6-55.3-51.9
		c-3.6-3.4-7.2-6.7-10.8-10.1c-2.5-2.4-5.5-3.3-8.9-2.4c-4.4,1.1-7,4.7-7,9.8c0,58.8,0,117.7,0,176.5c0,0.6-0.1,1.2,0.1,1.7
		c0.5,1.5,0.8,3.2,1.6,4.4c3.2,4.9,10,5.3,14.3,1.1c5.8-5.8,11.6-11.6,17.4-17.4c3.4-3.4,6.7-6.7,10.3-10.3c1.4,3.1,2.7,6,4,8.8
		c6.4,13.9,12.8,27.9,19.2,41.8c2.3,4.9,7.5,6.9,12.3,4.7c11.8-5.4,23.6-10.7,35.3-16.2c5.3-2.4,7.2-7.6,4.8-12.9
		c-6.5-14.2-13-28.3-19.5-42.5c-1.5-3.2-2.9-6.4-4.5-9.8c0.8,0,1.4,0,1.9,0c13.7,0,27.3,0,41,0c4.3,0,7.6-2.1,9.1-5.8
		C654.1,411,653.2,407.2,650,404.2z M618.6,401.9c-10.2,0-20.3,0-30.5,0c-2.2,0-4.2,0.5-6.1,1.6c-4.5,2.5-6.3,7.5-4.1,12.2
		c6.8,14.9,13.7,29.8,20.5,44.7c1.8,4,3.6,7.9,5.5,12c-6.3,2.9-12.6,5.8-18.9,8.7c-1.9-4-3.7-8-5.5-11.9
		c-6.4-14.1-12.9-28.1-19.3-42.2c-2.9-6.4-10.3-7.7-15.3-2.7c-6.7,6.6-13.3,13.3-19.9,19.9c-0.4,0.4-0.8,0.7-1.3,1.2
		c0-44.8,0-89.4,0-134.4c32.3,30.3,64.4,60.4,96.9,90.9C619.6,401.9,619.1,401.9,618.6,401.9z"/>
</g>
</svg>
