<?xml version="1.0" encoding="utf-8"?>
<!-- Generator: Adobe Illustrator 22.1.0, SVG Export Plug-In . SVG Version: 6.00 Build 0)  -->
<svg version="1.1" id="Слой_1" xmlns="http://www.w3.org/2000/svg" xmlns:xlink="http://www.w3.org/1999/xlink" x="0px" y="0px"
	 viewBox="0 0 841.9 595.3" style="enable-background:new 0 0 841.9 595.3;" xml:space="preserve">
<style type="text/css">
	.st0{fill:#707070;}
</style>
<g>
	<path class="st0" d="M660,554.3c-145.7,0-291.3,0-437,0c-1.1-0.3-2.1-0.8-3.2-1c-22.2-4.5-39.6-22.3-42.4-44.8
		c-1.1-8.9-0.5-17.9-0.5-26.9c0-141.6,0-283.1-0.1-424.7c0-6.5,1.6-11.3,7.3-14.5c144.3,0,288.7,0,433,0c6,2.9,8.2,7.8,7.9,14.2
		c-0.2,4,0,8,0,12c0,5.4,0,10.8,0,16c1.1,0.3,1.4,0.5,1.7,0.5c8.8,0,17.7,0.1,26.5,0.1c11.2,0,14.1,3,14.1,14.2
		c0,146.8,0,293.6,0.1,440.4C667.3,546.3,665.6,551,660,554.3z M198.4,63.7c0,142.3,0,284.3,0,426.2c135.1,0,269.8,0,404.4,0
		c0-142.3,0-284.2,0-426.2C467.8,63.7,333.2,63.7,198.4,63.7z M624.8,106.5c0,2.4,0,4.5,0,6.6c0,127.8,0,255.6,0,383.4
		c0,11.6-3.3,14.8-14.8,14.8c-134.5,0-269,0-403.4,0c-2.1,0-4.1,0-6.5,0c0.5,1.6,0.7,2.4,1,3.1c0.4,0.9,0.9,1.8,1.4,2.6
		c7.2,11.7,18.1,15.9,31.3,15.9c135.5,0,271,0,406.4,0c1.8,0,3.5,0,5.3,0c0-142.6,0-284.7,0-426.6
		C638.6,106.5,631.9,106.5,624.8,106.5z"/>
	<path class="st0" d="M304.6,213.1c24.3,0,48.7,0,73,0c8.6,0,12.4,3.8,12.4,12.6c0,41.3,0,82.6,0,124c0,8.6-4,12.6-12.5,12.6
		c-48.5,0-97,0-145.5,0c-8.4,0-12.8-4-12.8-12.5c-0.1-41.5-0.1-83,0-124.5c0-8.5,4.2-12.2,12.9-12.2
		C256.3,213.1,280.4,213.1,304.6,213.1z M368.4,340.9c0-35.9,0-71.1,0-106.3c-42.7,0-84.9,0-127.3,0c0,35.5,0,70.8,0,106.3
		C283.7,340.9,325.9,340.9,368.4,340.9z"/>
	<path class="st0" d="M423.5,142.9c3.2-9.5,5.9-17.6,8.6-25.6c2.3-6.9,5.3-9.5,11.1-9.6c5.8-0.1,8.9,2.4,11.2,9.3
		c2.7,7.9,5.4,15.9,9.2,23.8c2.7-10.8,5.5-21.7,8.2-32.5c1.1-4.4,2.1-8.7,3.2-13.1c2-7.9,6.9-11.5,13.5-10c6.3,1.5,9.2,7.3,7.3,15.2
		c-4.4,17.8-8.9,35.5-13.3,53.2c-2.4,9.5-4.7,19-7.2,28.5c-1.7,6.3-4.8,9.1-10.2,9.2c-5.5,0.1-8.8-2.3-10.9-8.4
		c-3.5-10.2-6.9-20.4-10.8-31.9c-3.3,9.8-6.3,18.4-9.2,27c-0.6,1.9-1.2,3.8-1.9,5.7c-2,5.4-5.7,7.9-11,7.6c-4.9-0.3-8.5-3.3-9.9-9
		c-4.2-16.4-8.2-32.9-12.3-49.4c-2.8-11.1-5.6-22.3-8.3-33.4c-1.7-7,1.3-12.8,7.2-14.3c6.2-1.5,11.5,1.8,13.3,8.8
		C415.3,109.9,419.2,125.7,423.5,142.9z"/>
	<path class="st0" d="M240.8,128.2c0,2.8,0,4.4,0,6c0,14.3,0,28.7,0,43c0,2.3-0.2,4.7-0.8,6.9c-1.2,4.5-5.3,7.4-10.1,7.3
		c-4.8,0-8.7-2.9-10-7.5c-0.4-1.4-0.7-2.9-0.7-4.4c0-27.5-0.1-55,0.1-82.5c0-2.7,0.9-5.7,2.5-7.9c4.3-6.1,12.6-5.4,17.7,1.3
		c11.6,15.3,23,30.6,34.5,45.9c2.7,3.7,5.5,7.3,9.2,12.2c0-3.1,0-4.7,0-6.3c0-14.7-0.2-29.3,0.2-44c0.1-3.5,1.4-7.8,3.7-10.3
		c5.2-5.8,14.9-3,17.1,4.6c0.5,1.7,0.7,3.6,0.7,5.4c0,26.8,0.1,53.6,0,80.5c0,8.9-5.3,14.4-12.6,12.6c-3-0.8-6.2-3.3-8.1-5.9
		c-13.3-17.3-26.3-34.8-39.4-52.3C243.7,131.7,242.7,130.5,240.8,128.2z"/>
	<path class="st0" d="M560.8,170.3c0-4.8,0.2-9,0-13.3c-0.3-5.5-2.9-7.9-8.7-7.8c-10.2,0.2-19.5-1.8-26.8-9.7
		c-15.5-16.9-7.5-48.4,14-53.4c6.5-1.5,13.6-0.7,20.4-0.9c4-0.1,8-0.1,12,0c6.3,0.2,10.4,4.3,10.5,10.3c0.1,5.9-4,10.6-10.2,10.8
		c-7.8,0.3-15.7,0.1-23.5,0.1c-7.3,0-9.3,2.3-9.3,10.3c0,8.5,2,11,9.2,10.9c13.6-0.3,24.9,3.7,30.8,16.8c4.8,10.7,4,22.3,1.3,33.3
		c-2.1,8.5-10.4,13.8-19.3,13.9c-10.3,0.1-20.7,0.1-31,0c-6.7,0-11.1-4.1-11.2-10.2c-0.1-6.2,4.3-10.8,11.1-10.9
		C540,170.2,550,170.3,560.8,170.3z"/>
	<path class="st0" d="M347.4,106.8c0,6.8,0,13.4,0,20.7c6.7,0,13.1-0.1,19.5,0c6.6,0.1,11,3.3,12,8.4c1.4,6.8-3.1,12.6-10.8,13.1
		c-5,0.3-10,0.1-15,0.1c-1.8,0-3.6,0-5.7,0c0,7.2,0,13.9,0,21.2c6.6,0,13,0,19.5,0c7.6,0.1,12.2,4.2,12.2,10.8
		c-0.1,6.5-4.4,10.3-12,10.3c-9.8,0-19.7,0.1-29.5,0c-7.6,0-11.6-4.1-11.7-11.8c0-27.5,0-55,0-82.4c0-8.1,4-12,11.9-12.1
		c9.8,0,19.7,0,29.5,0c7.4,0,11.8,4,11.8,10.5c0,6.4-4.6,10.5-11.9,10.6c-6.2,0.1-12.3,0-18.5,0.1
		C348.5,106.4,348.2,106.5,347.4,106.8z"/>
	<path class="st0" d="M496.5,255.4c20.5,0,41,0,61.4,0c8.3,0,13,3.9,13.2,10.4c0.2,5.2-2.9,9.4-8,10.6c-2.1,0.5-4.3,0.6-6.4,0.6
		c-40,0-79.9,0-119.9,0c-9.7,0-14.9-3.9-14.9-10.9c0.1-7,5.2-10.8,15-10.8C456.8,255.4,476.7,255.4,496.5,255.4z"/>
	<path class="st0" d="M304,405c-20.3,0-40.7,0.2-61-0.2c-3.4-0.1-7.4-1.3-9.9-3.5c-5.9-5.2-3.2-14.9,4.3-17.2
		c1.6-0.5,3.3-0.6,4.9-0.6c41.5,0,83,0,124.5,0c7.3,0,11.8,3.6,12.3,9.6c0.6,7.1-4.1,11.8-12.2,11.8c-19.8,0.1-39.7,0-59.5,0
		C306.3,405,305.2,405,304,405z"/>
	<path class="st0" d="M497,383.5c20.7,0,41.3,0,62,0c7.5,0,12,4,12.2,10.3c0.2,5.6-3.2,9.9-9,10.8c-2.4,0.4-5,0.3-7.5,0.3
		c-39.3,0-78.6,0-118,0c-1.7,0-3.3,0.1-5-0.1c-5.8-0.7-9.9-5.2-9.8-10.7c0.1-5.5,4.2-9.9,10-10.6c1.5-0.2,3-0.1,4.5-0.1
		C456.7,383.5,476.8,383.5,497,383.5z"/>
	<path class="st0" d="M497,213c21,0,42-0.1,63,0c6.9,0,11.3,4.4,11.2,10.7c-0.1,6.2-4.6,10.4-11.5,10.5c-0.3,0-0.7,0-1,0
		c-41.5,0-83,0-124.5,0c-7.5,0-12.4-4.3-12.3-10.8c0.1-6.3,4.7-10.5,12-10.5C455,213,476,213,497,213z"/>
	<path class="st0" d="M496.5,319.5c-21,0-42,0-63,0c-6.5,0-10.8-3.7-11.5-9.5c-0.7-6.5,4.1-11.7,11.3-11.7c11.5-0.1,23,0,34.5,0
		c30.5,0,61,0,91.5,0c7.8,0,12.4,4.6,11.9,11.5c-0.4,5.9-4.8,9.7-11.7,9.7C538.5,319.6,517.5,319.5,496.5,319.5z"/>
	<path class="st0" d="M496.5,362.3c-21,0-42,0-63,0c-5.7,0-9.6-2.7-11-7.6c-1.4-4.7,0-8.7,3.9-11.4c1.9-1.3,4.6-2.1,7-2.1
		c42.1-0.1,84.3-0.1,126.5-0.1c7,0,11.4,4.2,11.4,10.5c0,6.4-4.6,10.7-11.8,10.7C538.5,362.3,517.5,362.3,496.5,362.3z"/>
	<path class="st0" d="M305,426.3c21,0,42,0,63,0c5.3,0,9.4,2.9,10.8,7.3c1.4,4.5,0,9.4-4,11.9c-1.9,1.2-4.3,1.9-6.5,1.9
		c-42.3,0.1-84.6,0.1-127,0.1c-6.8,0-11.4-4.5-11.3-10.7c0.1-6.1,4.7-10.5,11.5-10.5C262.7,426.2,283.8,426.3,305,426.3z"/>
	<path class="st0" d="M496.5,447.5c-21,0-42,0.1-63,0c-7.6,0-12.7-5.7-11.4-12.4c1-5.4,5.3-8.8,11.7-8.8c17.7,0,35.3,0,53,0
		c24.3,0,48.6,0,73,0c7.6,0,12.4,5.4,11.3,12.5c-0.8,5.4-5.1,8.7-11.6,8.7C538.5,447.6,517.5,447.5,496.5,447.5z"/>
</g>
</svg>
