<?xml version="1.0" encoding="utf-8"?>
<!-- Generator: Adobe Illustrator 22.1.0, SVG Export Plug-In . SVG Version: 6.00 Build 0)  -->
<svg version="1.1" id="Слой_1" xmlns="http://www.w3.org/2000/svg" xmlns:xlink="http://www.w3.org/1999/xlink" x="0px" y="0px"
	 viewBox="0 0 841.9 595.3" style="enable-background:new 0 0 841.9 595.3;" xml:space="preserve">
<style type="text/css">
	.st0{fill:#707070;}
</style>
<g>
	<path class="st0" d="M619,554.3c-131.3,0-262.7,0-394,0c-0.4-0.3-0.8-0.6-1.3-0.8c-17.3-4.8-25.7-15.9-25.7-33.9
		c0-17.2,0.4-34.3-0.1-51.5c-0.5-16.5,2.9-32.1,8.9-47.2c20.1-50.8,48.9-96.7,79-142c5.7-8.5,14.6-12.4,24.9-12.6
		c4.9-0.1,9.9,0,15.3,0c0-12.8,0.2-25.1-0.1-37.4c-0.3-9.8,4.1-16.8,12.2-21.3c13.6-7.5,27.5-7.4,40.8,0.7c7.3,4.4,11.2,11.1,11,20
		c-0.2,8.7,0,17.3,0,26c0,3.9,0,7.8,0,11.6c21.8,0,42.9,0,63.9,0c0.1-0.7,0.2-1.1,0.2-1.4c0-12,0.2-24,0-36
		c-0.2-9.1,3.8-15.7,11.3-20.4c10.5-6.6,21.9-7.5,33.6-3.8c13.2,4.2,19.1,12.5,19.1,26.3c0,10.2,0,20.3,0,30.5
		c0,1.6,0.1,3.2,0.2,5.1c5.4,0,10.4,0,15.4,0c10.7,0.1,19.6,4.3,25.8,13c26.5,37.2,50.9,75.7,69.5,117.6c7.6,17.1,15,34.5,16,53.3
		c1.3,24.8,1.3,49.6,0.9,74.4c-0.2,12-7,20.9-17.9,26.4C625,552.4,621.9,553.2,619,554.3z M518.1,426.5
		c0.2-52.6-42.7-96.1-95.2-96.3c-53.6-0.2-96.8,42.6-96.9,96c-0.1,52.5,43,95.9,95.4,96.1C474.7,522.5,517.9,479.7,518.1,426.5z"/>
	<path class="st0" d="M678,239.3c-0.4,1.2-0.9,2.5-1.2,3.7c-3.8,13.9-15.4,23.1-29.6,23.2c-21.5,0.1-43,0.2-64.5,0
		c-17-0.1-31.4-13.9-31.5-30.6c-0.3-38.7-21-64.1-53.4-81.4c-18.9-10.1-39.6-13.6-60.7-14.5c-26.1-1.1-52-0.3-77,8.6
		c-23.2,8.3-41.8,22.4-54.8,43.5c-7.3,11.9-11.1,24.8-11.2,38.8c-0.2,22.8-13.1,35.6-35.8,35.5c-17.5,0-35,0-52.5,0
		c-23.7,0-31.3-5.1-39.7-26.9c0-15.7,0-31.3,0-47c2.7-14.3,9.1-26.6,19.7-36.6c15.7-14.9,32.3-28.8,50.8-40.2
		c34.8-21.6,73.3-32.1,113.5-36.9c49.6-6,99.3-5.6,149,0.6c59.9,7.5,112.2,30.7,155.8,73c9.1,8.8,17.2,18.1,20.8,30.6
		c1,3.5,1.7,7.1,2.5,10.6C678,208.6,678,223.9,678,239.3z"/>
	<path class="st0" d="M485.9,426.2c-0.1,35.5-28.8,64.1-64.4,64c-34.9-0.1-63.5-29-63.5-63.9c0.1-35.5,28.8-64,64.4-63.9
		C457.3,362.4,486,391.3,485.9,426.2z"/>
</g>
</svg>
